<svg xmlns="http://www.w3.org/2000/svg" width="32" height="32" viewBox="0 0 32 32"><g transform="translate(421.101 -1301.381)"><circle cx="-405.101" cy="1317.371" r="8.5" fill="none" stroke="#25b39e" stroke-dashoffset="1.1" stroke-linecap="round" stroke-linejoin="round" style="isolation:auto;mix-blend-mode:normal" color="#000" overflow="visible"/><path fill="none" stroke="#25b39e" d="M-405.10114 1306.3711l0-3M-406.51535 1304.4747l1.41421-1.4143 1.41421 1.4143M-394.11004 1317.3622l3 0M-392.21364 1315.948l1.4143 1.4142-1.4143 1.4142M-416.09224 1317.3622l-3 0M-417.98864 1315.948l-1.4143 1.4142 1.4143 1.4142M-397.32925 1309.5903l2.12132-2.1213M-396.9883 1307.2494l2.00006-.0001-.00006 2.0001M-412.87302 1325.134l-2.12132 2.1214M-415.21398 1325.475l-.00006 2.0001 2.00007-.0001M-397.32926 1325.134l2.12132 2.1214M-394.9883 1325.475l.00006 2.0001-2.00006-.0001M-412.87302 1309.5903l-2.12133-2.1213M-413.21398 1307.2494l-2.00006-.0001.00006 2.0001"/><g transform="translate(-421 283.523)"><path fill="#fcd062" d="m 16,1026.8388 a 7.0000024,7.0000024 0 0 0 -7,7 7.0000024,7.0000024 0 0 0 0.029297,0.5996 c 0.3025991,4.5296 3.939453,5.5896 3.939453,8.4942 l 0.796875,0 C 13.328722,1043.0398 13,1043.4148 13,1043.8857 l 0,4 c 0,0.554 0.44599,1 1,1 l 4,0 c 0.55401,0 1,-0.446 1,-1 l 0,-4 c 0,-0.4709 -0.328722,-0.8459 -0.765625,-0.9531 l 0.796875,0 c 0,-2.8832 3.584741,-3.9488 3.933594,-8.3946 A 7.0000024,7.0000024 0 0 0 23,1033.8388 a 7.0000024,7.0000024 0 0 0 -7,-7 z" color="#000" overflow="visible" style="isolation:auto;mix-blend-mode:normal"/><path fill="#576d7e" style="isolation:auto;mix-blend-mode:normal" d="m 13,1042.9326 0,0.9531 0,4 c 0,0.554 0.44599,1 1,1 l 4,0 c 0.55401,0 1,-0.446 1,-1 l 0,-4 0,-0.9531 z" color="#000" overflow="visible"/><path fill="none" stroke="#2b4255" stroke-linecap="round" stroke-linejoin="round" d="M12.507703 1043.3857l6.984593 0M12.507703 1045.3857l6.984593 0M12.507703 1047.3857l6.984593 0"/></g></g></svg>