<svg xmlns="http://www.w3.org/2000/svg" width="32" height="32" viewBox="0 0 32 32"><g transform="translate(0 -1020.362)"><rect width="20" height="9" x="6" y="1041.362" fill="#fcd062" color="#000" overflow="visible" style="isolation:auto;mix-blend-mode:normal"/><rect style="isolation:auto;mix-blend-mode:normal" width="20" height="12" x="6" y="1035.362" fill="#fcd062" color="#000" overflow="visible" rx="4" ry="4"/><path fill="#fff" d="m 13,1035.3622 6,0 -3,9 z" color="#000" overflow="visible" style="isolation:auto;mix-blend-mode:normal"/><g transform="matrix(1.27598 0 0 1.27598 8.342 -283.81)"><path fill="#576d7e" d="m 8.703125,1028.3613 c 1.3e-6,0.9668 -0.5141031,1.8564 -1.3515625,2.3399 -0.8374582,0.4834 -1.8637137,0.4834 -2.7011719,0 l -1,1.7324 c 1.4534601,0.839 3.2477118,0.839 4.7011719,0 1.4534621,-0.839 2.3515645,-2.3941 2.3515625,-4.0723 l -2,0 z" color="#000" font-family="sans-serif" font-weight="400" overflow="visible" white-space="normal" style="line-height:normal;text-indent:0;text-align:start;text-decoration-line:none;text-decoration-style:solid;text-decoration-color:#000;text-transform:none;block-progression:tb;isolation:auto;mix-blend-mode:normal"/><path fill="#f8b84e" d="m 3.4589844,1024.4062 c -1.4008129,0.9 -2.2221104,2.479 -2.15625,4.1426 0.065862,1.6636 1.008999,3.1707 2.4765625,3.9571 l 0.9453125,-1.7637 c -0.8455256,-0.4531 -1.3858898,-1.3152 -1.4238282,-2.2734 -0.037937,-0.9583 0.4331815,-1.8605 1.2402344,-2.379 l -1.0820312,-1.6836 z" color="#000" font-family="sans-serif" font-weight="400" overflow="visible" white-space="normal" style="line-height:normal;text-indent:0;text-align:start;text-decoration-line:none;text-decoration-style:solid;text-decoration-color:#000;text-transform:none;block-progression:tb;isolation:auto;mix-blend-mode:normal"/><path fill="#f05542" d="m 5.6289062,1023.6777 c -0.9633983,0.077 -1.9032035,0.4481 -2.6738281,1.1035 L 4.25,1026.3047 c 0.8903166,-0.7573 2.155391,-0.859 3.1542969,-0.252 0.9989141,0.607 1.492716,1.7772 1.2304687,2.9161 l 1.9492184,0.4472 c 0.454047,-1.9717 -0.411448,-4.0215 -2.1406246,-5.0722 -0.8645812,-0.5254 -1.8510548,-0.7427 -2.8144532,-0.6661 z" color="#000" font-family="sans-serif" font-weight="400" overflow="visible" white-space="normal" style="line-height:normal;text-indent:0;text-align:start;text-decoration-line:none;text-decoration-style:solid;text-decoration-color:#000;text-transform:none;block-progression:tb;isolation:auto;mix-blend-mode:normal"/></g><circle style="isolation:auto;mix-blend-mode:normal" cx="-715.848" cy="736.707" r=".75" fill="#576d7e" color="#000" overflow="visible" transform="rotate(-45)"/><circle cx="-715.847" cy="740.243" r=".75" fill="#576d7e" color="#000" overflow="visible" transform="rotate(-45)" style="isolation:auto;mix-blend-mode:normal"/><path fill="#576d7e" fill-rule="evenodd" stroke="#576d7e" stroke-linecap="round" stroke-linejoin="round" d="m 14.500967,1029.8612 2.99807,-2.9981"/></g></svg>