<svg xmlns="http://www.w3.org/2000/svg" width="32" height="32" viewBox="0 0 32 32"><g transform="translate(456 -1301.362)"><g transform="translate(-456 281.009)"><circle cx="16" cy="1036.362" r="8.5" fill="none" stroke="#2b4255" stroke-dashoffset="1.1" stroke-linecap="round" stroke-linejoin="round" style="isolation:auto;mix-blend-mode:normal" color="#000" overflow="visible"/><path fill="none" stroke="#2b4255" d="M16 1025.3622l0-3M14.585786 1023.4658L16 1022.0515l1.414214 1.4143M16 1047.3444l0 3M14.585786 1049.2408L16 1050.6551l1.414214-1.4143M26.9911 1036.3533l3 0M28.8875 1034.9391l1.4143 1.4142-1.4143 1.4142M5.0089 1036.3533l-3 0M3.1125 1034.9391l-1.4143 1.4142 1.4143 1.4142M23.771885 1028.5814l2.12132-2.1213M24.112842 1026.2405l2.000061-.0001-.00006 2.0001M8.2281221 1044.1251l-2.1213204 2.1214M5.8871645 1044.4661l-.0000609 2.0001 2.0000615-.0001M23.771878 1044.1251l2.12132 2.1214M26.112836 1044.4661l.00006 2.0001-2.000061-.0001M8.2281151 1028.5814l-2.1213203-2.1213M7.8871581 1026.2405l-2.0000614-.0001.0000608 2.0001"/></g><path fill="#2b4255" d="m -440.74253,1311.3627 0,0 c -0.53109,0 -0.93743,0.2816 -1.18752,0.6724 -0.26554,0.3749 -0.40631,0.8596 -0.54654,1.3594 -0.26555,1.0002 -0.46871,2.0778 -0.8905,2.5156 l -0.25009,0.2501 0.31248,0.2025 c 0.59403,0.3595 1.18751,0.6255 1.797,0.7968 0.14077,0.047 0.15624,0.1253 0.17225,0.2501 -0.0154,0.4692 -0.20319,0.8281 -0.51564,1.1719 -0.32794,0.3436 -0.76572,0.656 -1.23444,0.9691 -0.46871,0.3118 -0.96888,0.6404 -1.34374,1.0307 -0.39086,0.3908 -0.67187,0.8904 -0.67187,1.4845 l 0,0.2964 0.29591,0 c 4.56233,0 5.73437,0 9.60936,0 l 0.29701,0 0,-0.2964 c 0,-0.5941 -0.29701,-1.0783 -0.67188,-1.4692 -0.39087,-0.3902 -0.85957,-0.7189 -1.32828,-1.0468 -0.46872,-0.3124 -0.92196,-0.6254 -1.2499,-0.9688 -0.31246,-0.3438 -0.50015,-0.7029 -0.50015,-1.1565 0,-0.1877 0.0785,-0.2502 0.14021,-0.2811 0.57802,-0.1563 1.1566,-0.4221 1.73461,-0.7971 l 0.29701,-0.1873 -0.25009,-0.2499 c -0.45325,-0.4687 -0.67187,-1.547 -0.98434,-2.5467 -0.15624,-0.4998 -0.32849,-0.9844 -0.62495,-1.3594 -0.28101,-0.3753 -0.7188,-0.6408 -1.28135,-0.6408 l -1.12457,0 z"/></g></svg>