<svg xmlns="http://www.w3.org/2000/svg" width="32" height="32" viewBox="0 0 32 32"><g transform="translate(0 -1020.362)"><path fill="none" stroke="#576d7e" d="M28.999996 1035.7997l0 5.0625-11 0M2.9999955 1035.6747l0 5.1875 11.0000045 0M22.999996 1029.7214l0 3.1213-4.499996.039 0 6.4805M8.9999955 1029.7684l0 3.0743 4.5000045.039 0 6.4805M15.999996 1025.3622l0 12"/><circle cx="3" cy="1033.362" r="2.5" fill="none" stroke="#576d7e" stroke-dashoffset="1.5" stroke-linecap="round" stroke-linejoin="round" style="isolation:auto;mix-blend-mode:normal" color="#000" overflow="visible"/><circle cx="16" cy="1023.362" r="2.5" fill="none" stroke="#576d7e" stroke-dashoffset="1.5" stroke-linecap="round" stroke-linejoin="round" color="#000" overflow="visible" style="isolation:auto;mix-blend-mode:normal"/><circle cx="9" cy="1027.362" r="2.5" fill="none" stroke="#576d7e" stroke-dashoffset="1.5" stroke-linecap="round" stroke-linejoin="round" color="#000" overflow="visible" style="isolation:auto;mix-blend-mode:normal"/><circle cx="-29" cy="1033.362" r="2.5" fill="none" stroke="#576d7e" stroke-dashoffset="1.5" stroke-linecap="round" stroke-linejoin="round" color="#000" overflow="visible" transform="scale(-1 1)" style="isolation:auto;mix-blend-mode:normal"/><circle cx="-23" cy="1027.362" r="2.5" fill="none" stroke="#576d7e" stroke-dashoffset="1.5" stroke-linecap="round" stroke-linejoin="round" color="#000" overflow="visible" transform="scale(-1 1)" style="isolation:auto;mix-blend-mode:normal"/><path fill="#2b4255" d="m 14.689938,1032.9557 0,0 c -0.937012,0 -1.653905,0.4968 -2.095134,1.1864 -0.468515,0.6612 -0.716873,1.5165 -0.964279,2.3982 -0.468516,1.7647 -0.826952,3.666 -1.571112,4.4384 l -0.4412291,0.4412 0.5512881,0.3575 c 1.048062,0.6342 2.095134,1.1035 3.170463,1.4056 0.248377,0.083 0.275644,0.2211 0.303901,0.4412 -0.02717,0.8279 -0.358456,1.4612 -0.909744,2.0678 -0.578576,0.6059 -1.350973,1.1573 -2.177926,1.7095 -0.8269519,0.5504 -1.7094095,1.1299 -2.3707772,1.8186 C 7.4957832,1049.9097 7,1050.7912 7,1051.8392 l 0,0.523 0.5220803,0 c 8.0493447,0 10.1172107,0 16.9538987,0 l 0.524021,0 0,-0.523 c 0,-1.048 -0.524021,-1.9022 -1.185389,-2.5919 -0.689605,-0.6886 -1.516558,-1.2683 -2.34351,-1.8468 -0.826952,-0.5512 -1.626617,-1.1035 -2.205193,-1.7094 -0.551288,-0.6067 -0.882457,-1.24 -0.882457,-2.0405 0,-0.3313 0.138375,-0.4414 0.247387,-0.4959 1.019804,-0.2758 2.040598,-0.745 3.060402,-1.4064 l 0.524021,-0.3304 -0.441229,-0.4411 c -0.799684,-0.8269 -1.185388,-2.7293 -1.736696,-4.493 -0.275645,-0.8817 -0.579546,-1.7368 -1.102597,-2.3984 -0.495783,-0.6622 -1.268181,-1.1307 -2.260718,-1.1307 l -1.984083,0 z"/></g></svg>