<svg xmlns="http://www.w3.org/2000/svg" width="32" height="32" viewBox="0 0 32 32"><g transform="translate(0 -1021.362)"><path fill="#34485c" style="isolation:auto;mix-blend-mode:normal" d="M 16,3 12.888672,9 19.111328,9 16,3 Z m -3.628906,7 -3.1113284,6 13.4804684,0 -3.111328,-6 -7.257812,0 z M 8.7402344,17 5.6289062,23 26.371094,23 23.259766,17 8.7402344,17 Z M 5.1113281,24 2,30 30,30 26.888672,24 5.1113281,24 Z" color="#000" overflow="visible" transform="translate(0 1020.362)"/><path fill="#25b39e" d="M 12.371094,10 9.2597656,16 22.740234,16 19.628906,10 Z M 8.7402344,17 5.6289062,23 26.371094,23 23.259766,17 Z M 5.1113281,24 2,30 30,30 26.888672,24 Z" color="#000" overflow="visible" transform="translate(0 1020.362)" style="isolation:auto;mix-blend-mode:normal"/><path fill="#f8b84e" style="isolation:auto;mix-blend-mode:normal" d="M 8.7402344,17 5.6289062,23 26.371094,23 23.259766,17 Z" color="#000" overflow="visible" transform="translate(0 1020.362)"/><path fill="#f05542" d="M 5.1113281,24 2,30 30,30 26.888672,24 Z" color="#000" overflow="visible" transform="translate(0 1020.362)" style="isolation:auto;mix-blend-mode:normal"/></g></svg>