<svg xmlns="http://www.w3.org/2000/svg" width="32" height="32" viewBox="0 0 32 32"><path fill="#25b39e" d="m 1.8578595,1036.5043 4.3407192,4.3407 c -0.28496,0.169 -0.5595,0.3634 -0.80518,0.609 -1.566949,1.567 -1.566949,4.09 0,5.6569 1.56695,1.567 4.0899,1.567 5.6568503,0 0.24569,-0.2457 0.44053,-0.5197 0.60903,-0.8052 l 4.340719,4.3407 4.3407,-4.3407 c -0.28532,-0.1686 -0.55945,-0.3633 -0.80517,-0.609 -1.56694,-1.567 -1.56694,-4.0899 0,-5.6569 1.56695,-1.5669 4.089909,-1.5669 5.656859,0 0.24572,0.2458 0.44038,0.5199 0.60905,0.8052 l 4.3407,-4.3407 -4.34072,-4.3407 c 0.28496,-0.169 0.5595,-0.3634 0.80518,-0.609 1.56695,-1.567 1.56695,-4.09 0,-5.6569 -1.56695,-1.567 -4.089899,-1.567 -5.656849,0 -0.24569,0.2457 -0.44053,0.5197 -0.60903,0.8052 l -4.34072,-4.3407 -4.340699,4.3407 c 0.28532,0.1686 0.55952,0.3634 0.80517,0.609 1.56694,1.567 1.56694,4.0899 0,5.6569 -1.56695,1.5669 -4.0899103,1.5669 -5.6568603,0 -0.24565,-0.2457 -0.44038,-0.5199 -0.60905,-0.8052 l -4.3406992,4.3407 z" color="#000" overflow="visible" transform="translate(0 -1020.362)" style="isolation:auto;mix-blend-mode:normal"/></svg>