<svg xmlns="http://www.w3.org/2000/svg" width="32" height="32" viewBox="0 0 32 32"><g transform="translate(496 -1301.362)"><g transform="translate(-496 281.009)"><circle cx="16" cy="1036.362" r="8.5" fill="none" stroke="#2b4255" stroke-dashoffset="1.1" stroke-linecap="round" stroke-linejoin="round" color="#000" overflow="visible" style="isolation:auto;mix-blend-mode:normal"/><path fill="none" stroke="#2b4255" d="M16 1025.3622l0-3M14.585786 1023.4658L16 1022.0515l1.414214 1.4143M16 1047.3444l0 3M14.585786 1049.2408L16 1050.6551l1.414214-1.4143M26.9911 1036.3533l3 0M28.8875 1034.9391l1.4143 1.4142-1.4143 1.4142M5.0089 1036.3533l-3 0M3.1125 1034.9391l-1.4143 1.4142 1.4143 1.4142M23.771885 1028.5814l2.12132-2.1213M24.112842 1026.2405l2.000061-.0001-.00006 2.0001M8.2281221 1044.1251l-2.1213204 2.1214M5.8871645 1044.4661l-.0000609 2.0001 2.0000615-.0001M23.771878 1044.1251l2.12132 2.1214M26.112836 1044.4661l.00006 2.0001-2.000061-.0001M8.2281151 1028.5814l-2.1213203-2.1213M7.8871581 1026.2405l-2.0000614-.0001.0000608 2.0001"/></g><path fill="#2b4255" d="m -482.50707,1312.372 0,0 c -0.11641,0 -0.21957,0.1035 -0.21957,0.2195 l 0,1.5886 c 0,0.3232 0.18076,0.6072 0.45238,0.7624 l 0,0.3748 c 0,0.025 0.0128,0.051 0.0128,0.078 0,0.051 -0.0128,0.1031 -0.0128,0.1548 l 0,0.6719 c 0,0.7497 0.36154,1.3955 0.91755,1.8092 -0.0516,0.3742 -0.20679,0.5942 -0.46517,0.7883 -0.30995,0.2324 -0.74956,0.3876 -1.21473,0.5942 -0.46517,0.1941 -0.9559,0.4392 -1.34347,0.8527 -0.37479,0.4265 -0.61992,1.0205 -0.61992,1.8736 l 0,0.2328 10,0 0,-0.2328 c 0,-0.8271 -0.2456,-1.4082 -0.63317,-1.8214 -0.37478,-0.4008 -0.85272,-0.6335 -1.3179,-0.8272 -0.46517,-0.194 -0.89153,-0.3619 -1.20149,-0.5942 -0.25838,-0.2069 -0.42636,-0.4524 -0.46517,-0.8789 0.54231,-0.4136 0.89154,-1.0596 0.89154,-1.7963 l 0,-0.6719 c 0,-0.051 0,-0.1032 0,-0.1548 0,-0.026 0,-0.051 0,-0.078 l 0,-1.1372 c 0,-0.7496 -0.6076,-1.3694 -1.35671,-1.3694 l -0.87829,0 -0.0388,0 -1.74427,0 c -0.0776,0 -0.2456,-0.026 -0.37478,-0.078 -0.0516,-0.026 -0.10362,-0.052 -0.12919,-0.079 -0.0128,-0.024 -0.026,-0.039 -0.026,-0.064 0,-0.1283 -0.10318,-0.2319 -0.23281,-0.2192 l 0,0 z"/></g></svg>