<svg xmlns="http://www.w3.org/2000/svg" width="32" height="32" viewBox="0 0 32 32"><g transform="translate(0 -1020.362)"><path fill="none" stroke="#576d7e" d="M28.999996 1035.7997l0 5.0625-11 0M2.9999957 1035.6747l0 5.1875 11.0000043 0M22.999996 1029.7214l0 3.1213-4.499996.039 0 6.4805M8.9999957 1029.7684l0 3.0743 4.5000043.039 0 6.4805M15.999996 1025.3622l0 12"/><circle cx="3" cy="1033.362" r="2.5" fill="none" stroke="#576d7e" stroke-dashoffset="1.5" stroke-linecap="round" stroke-linejoin="round" color="#000" overflow="visible" style="isolation:auto;mix-blend-mode:normal"/><circle cx="16" cy="1023.362" r="2.5" fill="none" stroke="#576d7e" stroke-dashoffset="1.5" stroke-linecap="round" stroke-linejoin="round" style="isolation:auto;mix-blend-mode:normal" color="#000" overflow="visible"/><circle cx="9" cy="1027.362" r="2.5" fill="none" stroke="#576d7e" stroke-dashoffset="1.5" stroke-linecap="round" stroke-linejoin="round" style="isolation:auto;mix-blend-mode:normal" color="#000" overflow="visible"/><circle cx="-29" cy="1033.362" r="2.5" fill="none" stroke="#576d7e" stroke-dashoffset="1.5" stroke-linecap="round" stroke-linejoin="round" style="isolation:auto;mix-blend-mode:normal" color="#000" overflow="visible" transform="scale(-1 1)"/><circle cx="-23" cy="1027.362" r="2.5" fill="none" stroke="#576d7e" stroke-dashoffset="1.5" stroke-linecap="round" stroke-linejoin="round" color="#000" overflow="visible" style="isolation:auto;mix-blend-mode:normal" transform="scale(-1 1)"/><path fill="#2b4255" d="m 11.492271,1034.3669 0,0 c -0.209453,0 -0.395084,0.1863 -0.395084,0.3948 l 0,2.8586 c 0,0.5815 0.32526,1.0926 0.813981,1.3717 l 0,0.6745 c 0,0.045 0.02304,0.093 0.02304,0.1408 0,0.092 -0.02304,0.1856 -0.02304,0.2786 l 0,1.209 c 0,1.3488 0.650537,2.5109 1.650996,3.2552 -0.09287,0.6734 -0.372087,1.0694 -0.836999,1.4185 -0.557716,0.4181 -1.348718,0.6974 -2.185714,1.0693 -0.8369978,0.3491 -1.7199736,0.7902 -2.41734,1.5342 -0.674367,0.7674 -1.1154507,1.8363 -1.1154507,3.3713 l 0,0.4188 17.9933397,0 0,-0.4188 c 0,-1.4882 -0.441912,-2.5339 -1.139276,-3.2774 -0.67435,-0.7212 -1.534347,-1.1399 -2.371346,-1.4884 -0.836996,-0.3491 -1.604167,-0.6512 -2.161884,-1.0693 -0.464911,-0.3722 -0.767174,-0.8139 -0.836999,-1.5813 0.975803,-0.7441 1.604171,-1.9065 1.604171,-3.2321 l 0,-1.209 c 0,-0.092 0,-0.1858 0,-0.2786 0,-0.046 0,-0.093 0,-0.1408 l 0,-2.0462 c 0,-1.3488 -1.093261,-2.4641 -2.441168,-2.4641 l -1.580343,0 -0.06982,0 -3.138534,0 c -0.139651,0 -0.441911,-0.046 -0.674347,-0.1408 -0.09287,-0.046 -0.186458,-0.092 -0.232455,-0.1412 -0.02304,-0.044 -0.04678,-0.07 -0.04678,-0.1157 0,-0.2308 -0.185646,-0.4172 -0.418912,-0.3944 l 0,0 z"/></g></svg>