<svg xmlns="http://www.w3.org/2000/svg" width="32" height="32" viewBox="0 0 32 32"><g transform="translate(0 -1023.363)"><path fill="#60c5b8" style="isolation:auto;mix-blend-mode:normal" d="M 20.302734,18.871094 A 5.1736248,5.1736248 0 0 1 19.277344,20 l 1.523437,0 c 1.14317,0 2.135426,0.622391 2.701172,1.556641 a 9.3349407,9.3349407 0 0 0 0.416016,-0.597657 l -3.615235,-2.08789 z" color="#000" overflow="visible" transform="translate(0 1020.362)"/><path fill="#e9eded" style="isolation:auto;mix-blend-mode:normal" d="m 16.336278,1026.3643 -2.79e-4,4.8419 a 5.1736248,5.1736248 0 0 1 1.956268,0.5252 l 2.419332,-4.1881 a 10.013456,10.013456 0 0 0 -4.375321,-1.179 z" color="#000" overflow="visible"/><path fill="#78c8f0" d="m 9.3582402,1036.697 a 6.6678148,6.6678148 0 0 0 0.7149588,2.705 l 1.294496,-0.7476 a 5.1736248,5.1736248 0 0 1 -0.527434,-1.9573 l -1.4820317,-1e-4 z" color="#000" overflow="visible" style="isolation:auto;mix-blend-mode:normal"/><path fill="#f8b84e" style="isolation:auto;mix-blend-mode:normal" d="m 15.669217,1028.3623 a 8.0013778,8.0013778 0 0 0 -3.380848,0.8999 l 1.423445,2.4666 a 5.1736248,5.1736248 0 0 1 1.957403,-0.5275 l 0,-2.839 z" color="#000" overflow="visible"/><path fill="#4bbfeb" d="m 7.1756417,1031.6529 a 10.013456,10.013456 0 0 0 -1.1747558,4.3769 l 4.8450521,0 a 5.1736248,5.1736248 0 0 1 0.524142,-1.9557 l -4.1944383,-2.4212 z" color="#000" overflow="visible" style="isolation:auto;mix-blend-mode:normal"/><path fill="#f05542" style="isolation:auto;mix-blend-mode:normal" d="m 11.701172,18.869141 -4.1875001,2.419921 a 10.013456,10.013456 0 0 0 0.6757812,0.947266 C 8.6246155,20.934835 9.797775,20 11.199219,20 l 1.52539,0 a 5.1736248,5.1736248 0 0 1 -1.023437,-1.130859 z" color="#000" overflow="visible" transform="translate(0 1020.362)"/><path fill="#fcd062" style="isolation:auto;mix-blend-mode:normal" d="m 11.052537,1028.4587 a 9.3349407,9.3349407 0 0 0 -2.9562382,2.9562 l 3.6034852,2.0798 a 5.1736248,5.1736248 0 0 1 1.432538,-1.4312 l -2.079785,-3.6048 z" color="#000" overflow="visible"/><path fill="#576d7e" d="m 24.833485,1031.6516 -4.195743,2.4225 a 5.1736248,5.1736248 0 0 1 0.52675,1.9557 l 4.834622,0 a 10.013456,10.013456 0 0 0 -1.165629,-4.3782 z" color="#000" overflow="visible" style="isolation:auto;mix-blend-mode:normal"/><path fill="#34485c" style="isolation:auto;mix-blend-mode:normal" d="m 21.159746,1036.6971 a 5.1736248,5.1736248 0 0 1 -0.52483,1.956 l 2.448339,1.4143 a 8.0013778,8.0013778 0 0 0 0.893382,-3.3703 l -2.816891,0 z" color="#000" overflow="visible"/><path fill="#cad1d8" d="m 19.946763,1030.2016 -1.074413,1.861 a 5.1736248,5.1736248 0 0 1 1.431581,1.4325 l 1.860964,-1.0744 a 7.3345963,7.3345963 0 0 0 -2.218132,-2.2191 z" color="#000" overflow="visible" style="isolation:auto;mix-blend-mode:normal"/><path fill="#fcd062" style="isolation:auto;mix-blend-mode:normal" d="m 9,1045.6622 14,0 0,6.7 -14,0 z" color="#000" overflow="visible"/><path fill="#fcd062" style="isolation:auto;mix-blend-mode:normal" d="m 11.800012,1041.3622 8.399976,0 c 1.551206,0 2.800012,1.2488 2.800012,2.8 l 0,2.7999 c 0,1.5513 -1.248806,2.8001 -2.800012,2.8001 l -8.399976,0 C 10.248805,1049.7622 9,1048.5134 9,1046.9621 l 0,-2.7999 c 0,-1.5512 1.248805,-2.8 2.800012,-2.8 z" color="#000" overflow="visible"/><path fill="#fff" d="m 13.9,1041.3622 4.2,0 -2.1,6.3 z" color="#000" overflow="visible" style="isolation:auto;mix-blend-mode:normal"/><circle style="isolation:auto;mix-blend-mode:normal" cx="16" cy="1036.362" r="4" fill="#fcd062" color="#000" overflow="visible"/></g></svg>