<svg xmlns="http://www.w3.org/2000/svg" width="32" height="32" viewBox="0 0 32 32"><g transform="translate(0 -1020.362)"><path fill="none" stroke="#576d7e" d="M2.5 1022.3622l0 28M30.000001 1049.8622L2 1049.8622"/><rect width="4" height="11" x="6" y="1038.362" fill="#f05542" color="#000" overflow="visible" rx="0" ry="0" style="isolation:auto;mix-blend-mode:normal"/><rect style="isolation:auto;mix-blend-mode:normal" width="4" height="18" x="12" y="1031.362" fill="#25b39e" color="#000" overflow="visible" rx="0" ry="0"/><rect width="4" height="9" x="18" y="1040.362" fill="#f05542" color="#000" overflow="visible" rx="0" ry="0" style="isolation:auto;mix-blend-mode:normal"/><rect style="isolation:auto;mix-blend-mode:normal" width="4" height="23" x="24" y="1026.362" fill="#25b39e" color="#000" overflow="visible" rx="0" ry="0"/><path fill="#cad1d8" fill-rule="evenodd" d="M7 1043.3622l1 1 1-1-.5 0 0-4-1 0 0 4zM19 1045.3622l1 1 1-1-.5 0 0-4-1 0 0 4zM25 1028.3622l1-1 1 1-.5 0 0 4-1 0 0-4zM13 1033.3622l1-1 1 1-.5 0 0 4-1 0 0-4z"/></g></svg>