<svg xmlns="http://www.w3.org/2000/svg" width="32" height="32" viewBox="0 0 32 32"><g transform="translate(0 -1020.362)"><path fill="none" stroke="#666" d="M24.55 1033.8622c0-5.5-8.55-3.5-8.55-8.5M7.475 1033.8622c0-5.5 8.55-3.5 8.55-8.5M12.5 1046.3622c0-5-5-4-5-8.5M2.5 1046.3622c0-5 5-4 5-8.5"/><g transform="translate(13.5 25)"><circle cx="16" cy="1023.862" r="2" fill="none" stroke="#25b39e" stroke-dashoffset="1.1" stroke-linecap="round" stroke-linejoin="round" color="#000" overflow="visible" style="isolation:auto;mix-blend-mode:normal"/><circle cx="16" cy="1023.862" r=".5" fill="#666" color="#000" overflow="visible" style="isolation:auto;mix-blend-mode:normal"/></g><circle cx="19.5" cy="1048.862" r="2" fill="none" stroke="#25b39e" stroke-dashoffset="1.1" stroke-linecap="round" stroke-linejoin="round" style="isolation:auto;mix-blend-mode:normal" color="#000" overflow="visible"/><circle style="isolation:auto;mix-blend-mode:normal" cx="19.5" cy="1048.862" r=".5" fill="#666" color="#000" overflow="visible"/><g transform="translate(-13.5 25)"><circle cx="16" cy="1023.862" r="2" fill="none" stroke="#25b39e" stroke-dashoffset="1.1" stroke-linecap="round" stroke-linejoin="round" style="isolation:auto;mix-blend-mode:normal" color="#000" overflow="visible"/><circle style="isolation:auto;mix-blend-mode:normal" cx="16" cy="1023.862" r=".5" fill="#666" color="#000" overflow="visible"/></g><g transform="translate(-3.5 25)"><circle cx="16" cy="1023.862" r="2" fill="none" stroke="#25b39e" stroke-dashoffset="1.1" stroke-linecap="round" stroke-linejoin="round" color="#000" overflow="visible" style="isolation:auto;mix-blend-mode:normal"/><circle cx="16" cy="1023.862" r=".5" fill="#666" color="#000" overflow="visible" style="isolation:auto;mix-blend-mode:normal"/></g><g transform="translate(-8.5 12)"><circle cx="16" cy="1023.862" r="2" fill="none" stroke="#25b39e" stroke-dashoffset="1.1" stroke-linecap="round" stroke-linejoin="round" color="#000" overflow="visible" style="isolation:auto;mix-blend-mode:normal"/><circle cx="16" cy="1023.862" r=".5" fill="#666" color="#000" overflow="visible" style="isolation:auto;mix-blend-mode:normal"/></g><path fill="none" stroke="#666" d="M29.5 1046.3622c0-5-5-4-5-8.5M19.5 1046.3622c0-5 5-4 5-8.5"/><g transform="translate(8.5 12)"><circle cx="16" cy="1023.862" r="2" fill="none" stroke="#25b39e" stroke-dashoffset="1.1" stroke-linecap="round" stroke-linejoin="round" style="isolation:auto;mix-blend-mode:normal" color="#000" overflow="visible"/><circle style="isolation:auto;mix-blend-mode:normal" cx="16" cy="1023.862" r=".5" fill="#666" color="#000" overflow="visible"/></g><g><circle cx="16" cy="1023.862" r="2" fill="none" stroke="#25b39e" stroke-dashoffset="1.1" stroke-linecap="round" stroke-linejoin="round" color="#000" overflow="visible" style="isolation:auto;mix-blend-mode:normal"/><circle cx="16" cy="1023.862" r=".5" fill="#666" color="#000" overflow="visible" style="isolation:auto;mix-blend-mode:normal"/></g></g></svg>