<svg xmlns="http://www.w3.org/2000/svg" width="32" height="32" viewBox="0 0 32 32"><g transform="translate(0 -1020.362)"><path fill="#2b4255" d="m 13.493307,1031.3629 0,0 c -0.116389,0 -0.219541,0.1036 -0.219541,0.2195 l 0,1.5884 c 0,0.3231 0.180744,0.607 0.452318,0.7622 l 0,0.3747 c 0,0.026 0.01278,0.052 0.01278,0.078 0,0.052 -0.01278,0.1032 -0.01278,0.1548 l 0,0.6718 c 0,0.7495 0.36149,1.3953 0.917417,1.8088 -0.05158,0.3743 -0.206761,0.5943 -0.465098,0.7883 -0.309914,0.2323 -0.749453,0.3875 -1.214551,0.5942 -0.465098,0.194 -0.955757,0.4391 -1.343263,0.8526 -0.374726,0.4264 -0.619827,1.0202 -0.619827,1.8732 l 0,0.2328 9.998476,0 0,-0.2328 c 0,-0.827 -0.245558,-1.4081 -0.633064,-1.8211 -0.374726,-0.4008 -0.852604,-0.6335 -1.317702,-0.8271 -0.465099,-0.1939 -0.891401,-0.3619 -1.201315,-0.5942 -0.258337,-0.2068 -0.426302,-0.4523 -0.465098,-0.8787 0.542234,-0.4135 0.891401,-1.0593 0.891401,-1.796 l 0,-0.6718 c 0,-0.052 0,-0.1032 0,-0.1548 0,-0.026 0,-0.052 0,-0.078 l 0,-1.1369 c 0,-0.7495 -0.607504,-1.3693 -1.356499,-1.3693 l -0.878165,0 -0.0388,0 -1.744005,0 c -0.07759,0 -0.245557,-0.026 -0.374726,-0.078 -0.05158,-0.026 -0.103609,-0.052 -0.129168,-0.078 -0.01278,-0.026 -0.02602,-0.038 -0.02602,-0.064 0,-0.1283 -0.103153,-0.2319 -0.232778,-0.2191 l 0,0 z"/><g transform="translate(-.014 .02)"><path fill="#60c5b8" style="isolation:auto;mix-blend-mode:normal" d="m 20.320312,1042.7947 3.137973,5.4359 a 14,14 0 0 0 4.430603,-4.4514 l -5.421106,-3.1299 a 7.7591009,7.7591009 0 0 1 -2.14747,2.1454 z" color="#000" overflow="visible"/><path fill="#e9eded" d="m 16.517996,1021.3482 -4.18e-4,7.2616 a 7.7591009,7.7591009 0 0 1 2.933897,0.7876 l 3.628373,-6.281 a 15.017598,15.017598 0 0 0 -6.561852,-1.7682 z" color="#000" overflow="visible" style="isolation:auto;mix-blend-mode:normal"/><path fill="#78c8f0" style="isolation:auto;mix-blend-mode:normal" d="m 6.0527424,1036.8446 a 10,10 0 0 0 1.0722531,4.0567 l 1.9414107,-1.1211 a 7.7591009,7.7591009 0 0 1 -0.7910151,-2.9355 l -2.2226651,-1e-4 z" color="#000" overflow="visible"/><path fill="#f8b84e" d="m 15.517578,1024.3447 a 12,12 0 0 0 -5.0704,1.3496 l 2.1348,3.6992 a 7.7591009,7.7591009 0 0 1 2.9356,-0.791 l 0,-4.2578 z" color="#000" overflow="visible" style="isolation:auto;mix-blend-mode:normal"/><path fill="#4bbfeb" style="isolation:auto;mix-blend-mode:normal" d="m 2.7794083,1029.2797 a 15.017598,15.017598 0 0 0 -1.7618302,6.5643 l 7.2663273,0 a 7.7591009,7.7591009 0 0 1 0.7860775,-2.9331 l -6.2905746,-3.6312 z" color="#000" overflow="visible"/><path fill="#f05542" style="isolation:auto;mix-blend-mode:normal" d="m 9.5666586,1040.6465 -6.2807975,3.6273 a 15.017598,15.017598 0 0 0 4.7985919,4.8103 l 3.629253,-6.2867 a 7.7591009,7.7591009 0 0 1 -2.1470474,-2.1509 z" color="#000" overflow="visible"/><path fill="#25b39e" style="isolation:auto;mix-blend-mode:normal" d="m 19.453244,1043.2961 a 7.7591009,7.7591009 0 0 1 -2.93508,0.7899 l 0,7.2507 a 15.017598,15.017598 0 0 0 6.566288,-1.7481 l -3.631208,-6.2925 z" color="#000" overflow="visible"/><path fill="#fcd062" d="M 8.59375,4.1269531 A 14,14 0 0 0 4.1601562,8.5605469 L 9.5644531,11.679688 A 7.7591009,7.7591009 0 0 1 11.712891,9.5332031 L 8.59375,4.1269531 Z" color="#000" overflow="visible" transform="translate(0 1020.362)" style="isolation:auto;mix-blend-mode:normal"/><path fill="#576d7e" style="isolation:auto;mix-blend-mode:normal" d="m 29.261613,1029.2777 -6.292531,3.6332 a 7.7591009,7.7591009 0 0 1 0.789989,2.9331 l 7.250684,0 a 15.017598,15.017598 0 0 0 -1.748142,-6.5663 z" color="#000" overflow="visible"/><path fill="#34485c" d="m 23.751953,16.482422 a 7.7591009,7.7591009 0 0 1 -0.787109,2.933594 l 3.671875,2.121093 a 12,12 0 0 0 1.339843,-5.054687 l -4.224609,0 z" color="#000" overflow="visible" transform="translate(0 1020.362)" style="isolation:auto;mix-blend-mode:normal"/><path fill="#cad1d8" style="isolation:auto;mix-blend-mode:normal" d="m 21.932791,1027.1032 -1.611342,2.7909 a 7.7591009,7.7591009 0 0 1 2.147002,2.1485 l 2.790966,-1.6114 a 11,11 0 0 0 -3.326626,-3.328 z" color="#000" overflow="visible"/><path fill="#f17f53" style="isolation:auto;mix-blend-mode:normal" d="m 12.581818,1043.2919 a 7.7591009,7.7591009 0 0 0 2.935543,0.7837 l 2.17e-4,3.2543 a 11,11 0 0 1 -4.550325,-1.2408 l 1.614565,-2.7972 z" color="#000" overflow="visible"/></g></g></svg>