<svg xmlns="http://www.w3.org/2000/svg" width="32" height="32" viewBox="0 0 32 32"><g transform="translate(586 -1261.22)"><path fill="#2b4255" d="m -583.00849,1275.3609 0,0 c -0.13968,0 -0.26348,0.1244 -0.26348,0.2633 l 0,1.9064 c 0,0.3877 0.21692,0.7288 0.54285,0.9149 l 0,0.4496 c 0,0.03 0.0153,0.061 0.0153,0.095 0,0.061 -0.0153,0.1245 -0.0153,0.1859 l 0,0.8062 c 0,0.8996 0.43386,1.6746 1.10107,2.171 -0.062,0.449 -0.24814,0.7132 -0.5582,0.946 -0.37195,0.2788 -0.89948,0.4652 -1.45768,0.7131 -0.55821,0.2328 -1.14708,0.5271 -1.61216,1.0233 -0.44975,0.5106 -0.74391,1.2235 -0.74391,2.2474 l 0,0.2792 12,0 0,-0.2792 c 0,-0.9927 -0.29472,-1.69 -0.7598,-2.186 -0.44973,-0.4808 -1.02327,-0.7602 -1.58148,-0.9926 -0.55821,-0.2328 -1.06984,-0.4343 -1.44179,-0.7132 -0.31006,-0.2481 -0.51164,-0.5426 -0.5582,-1.0544 0.65077,-0.4963 1.06984,-1.2715 1.06984,-2.1557 l 0,-0.8063 c 0,-0.061 0,-0.1244 0,-0.1857 0,-0.03 0,-0.061 0,-0.095 l 0,-1.3645 c 0,-0.8996 -0.72912,-1.6434 -1.62805,-1.6434 l -1.05396,0 -0.0466,0 -2.09313,0 c -0.0931,0 -0.29472,-0.03 -0.44973,-0.095 -0.062,-0.03 -0.12435,-0.061 -0.15503,-0.095 -0.0153,-0.029 -0.0312,-0.047 -0.0312,-0.077 0,-0.1539 -0.12381,-0.2782 -0.27938,-0.2631 l 0,0 z"/><path fill="none" stroke="#576d7e" d="M-572.5 1267.2193l0 20M-554 1286.8622l-19 0"/><rect width="1" height="8" x="-569" y="1278.362" fill="#25b39e" color="#000" overflow="visible" rx="0" ry="0" style="isolation:auto;mix-blend-mode:normal"/><rect style="isolation:auto;mix-blend-mode:normal" width="1" height="14" x="-565" y="1272.362" fill="#25b39e" color="#000" overflow="visible" rx="0" ry="0"/><rect width="1" height="6" x="-561" y="1280.362" fill="#25b39e" color="#000" overflow="visible" rx="0" ry="0" style="isolation:auto;mix-blend-mode:normal"/><rect style="isolation:auto;mix-blend-mode:normal" width="1" height="18.571" x="-557" y="1267.791" fill="#25b39e" color="#000" overflow="visible" rx="0" ry="0"/><rect style="isolation:auto;mix-blend-mode:normal" width="1" height="6" x="-570" y="1280.362" fill="#f05542" color="#000" overflow="visible" rx="0" ry="0"/><rect width="1" height="14" x="-566" y="1272.362" fill="#f05542" color="#000" overflow="visible" rx="0" ry="0" style="isolation:auto;mix-blend-mode:normal"/><rect style="isolation:auto;mix-blend-mode:normal" width="1" height="9" x="-562" y="1277.362" fill="#f05542" color="#000" overflow="visible" rx="0" ry="0"/><rect width="1" height="16" x="-558" y="1270.362" fill="#f05542" color="#000" overflow="visible" rx="0" ry="0" style="isolation:auto;mix-blend-mode:normal"/></g></svg>