<svg xmlns="http://www.w3.org/2000/svg" width="32" height="32" viewBox="0 0 32 32"><g transform="translate(460 -1377.359)"><path fill="#25b39e" d="M-438.00849 1384.3619l0 0c-.13969 0-.26348.1241-.26348.2634l0 1.9061c0 .388.21691.7288.54286.9151l0 .4496c0 .03.0154.061.0154.094 0 .061-.0154.1238-.0154.1858l0 .8064c0 .8996.43385 1.6745 1.10105 2.1709-.0619.449-.24814.7131-.5582.9461-.37194.2788-.89947.465-1.45768.7129-.55819.2328-1.14707.5271-1.61216 1.0234-.44975.5115-.7439 1.2242-.7439 2.248l0 .2794 12 0 0-.2794c0-.9925-.29472-1.6898-.75981-2.1859-.44973-.4808-1.02326-.76-1.58148-.9923-.5582-.2331-1.06983-.4344-1.44179-.7133-.31005-.2481-.51162-.5428-.55819-1.0546.65077-.4963 1.06984-1.2714 1.06984-2.1555l0-.8063c0-.061 0-.1238 0-.1858 0-.032 0-.062 0-.095l0-1.3646c0-.8994-.72912-1.6432-1.62805-1.6432l-1.05395 0-.0465 0-2.09312 0c-.0932 0-.29473-.032-.44974-.094-.0619-.032-.12434-.063-.15503-.096-.0154-.028-.0312-.047-.0312-.075 0-.1539-.12381-.2783-.27937-.2632l0 0zM-456.0097 1384.3668l0 0c-.13964 0-.26338.1241-.26338.2633l0 1.9054c0 .3877.21683.7284.54263.9146l0 .4495c0 .03.0154.061.0154.094 0 .061-.0154.1238-.0154.1858l0 .806c0 .8992.43367 1.6738 1.10061 2.17-.0619.4488-.24805.7128-.55798.9457-.37179.2788-.8991.4648-1.45707.7127-.55798.2327-1.14661.5268-1.61151 1.0229-.44957.5108-.7436 1.2234-.7436 2.2467l0 .2792 11.99509 0 0-.2792c0-.9921-.29459-1.6891-.75948-2.185-.44956-.4806-1.02285-.7597-1.58084-.992-.55798-.2329-1.0694-.4341-1.4412-.7129-.30993-.248-.51142-.5425-.55798-1.0542.65051-.496 1.06941-1.271 1.06941-2.1546l0-.806c0-.061 0-.1237 0-.1857 0-.032 0-.062 0-.095l0-1.3642c0-.899-.72882-1.6425-1.62738-1.6425l-1.05352 0-.0465 0-2.09227 0c-.0931 0-.29459-.032-.44955-.094-.0619-.032-.1243-.063-.15496-.096-.0154-.028-.0312-.047-.0312-.075 0-.1538-.12377-.2783-.27926-.2631l0 0z"/><path fill="#f05542" d="m -452.52771,1385.4326 0,0 c -0.16214,0 -0.30583,0.1441 -0.30583,0.3057 l 0,2.2126 c 0,0.4501 0.25177,0.8458 0.6301,1.062 l 0,0.5219 c 0,0.034 0.0178,0.071 0.0178,0.1087 0,0.07 -0.0178,0.1436 -0.0178,0.2157 l 0,0.9359 c 0,1.0441 0.50358,1.9436 1.27802,2.5199 -0.0719,0.5211 -0.28803,0.8276 -0.64792,1.098 -0.43171,0.3238 -1.04403,0.5399 -1.69194,0.8275 -0.64792,0.2704 -1.33143,0.6119 -1.87126,1.1878 -0.52203,0.594 -0.86346,1.4215 -0.86346,2.6098 l 0,0.3241 13.92857,0 0,-0.3241 c 0,-1.1521 -0.34209,-1.9616 -0.88192,-2.5371 -0.52201,-0.5583 -1.18772,-0.8823 -1.83564,-1.1521 -0.64792,-0.2703 -1.24178,-0.5041 -1.67351,-0.8277 -0.35989,-0.2881 -0.59386,-0.6302 -0.64791,-1.2242 0.75536,-0.5761 1.24178,-1.4759 1.24178,-2.5019 l 0,-0.9359 c 0,-0.071 0,-0.1438 0,-0.2157 0,-0.036 0,-0.071 0,-0.1087 l 0,-1.5839 c 0,-1.044 -0.8463,-1.9073 -1.8897,-1.9073 l -1.22333,0 -0.054,0 -2.42952,0 c -0.10808,0 -0.34208,-0.036 -0.52201,-0.1086 -0.0719,-0.036 -0.14433,-0.073 -0.17995,-0.1101 -0.0178,-0.033 -0.0362,-0.055 -0.0362,-0.088 0,-0.1787 -0.14372,-0.3231 -0.32427,-0.3055 l 0,0 z"/><path fill="#f05542" d="m -442.45627,1385.4326 0,0 c -0.16214,0 -0.30583,0.1441 -0.30583,0.3057 l 0,2.2126 c 0,0.4501 0.25177,0.8458 0.6301,1.062 l 0,0.5219 c 0,0.034 0.0178,0.071 0.0178,0.1087 0,0.07 -0.0178,0.1436 -0.0178,0.2157 l 0,0.9359 c 0,1.0441 0.50357,1.9436 1.27802,2.5199 -0.0719,0.5211 -0.28803,0.8276 -0.64792,1.098 -0.43172,0.3238 -1.04403,0.5399 -1.69194,0.8275 -0.64792,0.2704 -1.33144,0.6119 -1.87127,1.1878 -0.52203,0.594 -0.86346,1.4215 -0.86346,2.6098 l 0,0.3241 13.92857,0 0,-0.3241 c 0,-1.1521 -0.34208,-1.9616 -0.88191,-2.5371 -0.52202,-0.5583 -1.18772,-0.8823 -1.83565,-1.1521 -0.64791,-0.2703 -1.24177,-0.5041 -1.6735,-0.8277 -0.35989,-0.2881 -0.59386,-0.6302 -0.64792,-1.2242 0.75536,-0.5761 1.24179,-1.4759 1.24179,-2.5019 l 0,-0.9359 c 0,-0.071 0,-0.1438 0,-0.2157 0,-0.036 0,-0.071 0,-0.1087 l 0,-1.5839 c 0,-1.044 -0.8463,-1.9073 -1.8897,-1.9073 l -1.22333,0 -0.0541,0 -2.42951,0 c -0.10809,0 -0.34209,-0.036 -0.52202,-0.1086 -0.0719,-0.036 -0.14433,-0.073 -0.17994,-0.1101 -0.0178,-0.033 -0.0362,-0.055 -0.0362,-0.088 0,-0.1787 -0.14372,-0.3231 -0.32427,-0.3055 l 0,0 z"/><path fill="#2b4255" d="m -448.51272,1384.3609 0,0 c -0.20954,0 -0.39523,0.1863 -0.39523,0.3951 l 0,2.8593 c 0,0.5819 0.32537,1.0931 0.81428,1.3724 l 0,0.6745 c 0,0.044 0.0231,0.091 0.0231,0.1405 0,0.091 -0.0231,0.1856 -0.0231,0.2787 l 0,1.2095 c 0,1.3494 0.65078,2.5119 1.65159,3.2565 -0.0929,0.6735 -0.37222,1.0695 -0.8373,1.4188 -0.55791,0.4184 -1.34921,0.6977 -2.18652,1.0697 -0.8373,0.3494 -1.72061,0.7905 -2.41824,1.5348 -0.67463,0.7677 -1.11586,1.8369 -1.11586,3.3725 l 0,0.419 18,0 0,-0.419 c 0,-1.4888 -0.44208,-2.5347 -1.13971,-3.2785 -0.6746,-0.7214 -1.5349,-1.1403 -2.37222,-1.489 -0.8373,-0.3492 -1.60475,-0.6515 -2.16268,-1.0695 -0.46509,-0.3725 -0.76745,-0.8144 -0.83731,-1.5821 0.97616,-0.7444 1.60478,-1.9071 1.60478,-3.2332 l 0,-1.2095 c 0,-0.091 0,-0.1858 0,-0.2787 0,-0.046 0,-0.093 0,-0.1405 l 0,-2.0469 c 0,-1.3491 -1.09369,-2.4649 -2.44208,-2.4649 l -1.58092,0 -0.0699,0 -3.13969,0 c -0.13968,0 -0.44207,-0.046 -0.6746,-0.1403 -0.0929,-0.046 -0.18651,-0.094 -0.23255,-0.1423 -0.0231,-0.043 -0.0468,-0.071 -0.0468,-0.116 0,-0.2309 -0.18573,-0.4175 -0.41907,-0.3945 l 0,0 z"/></g></svg>