<svg xmlns="http://www.w3.org/2000/svg" width="32" height="32" viewBox="0 0 32 32"><g transform="translate(0 -1020.362)"><path fill="#60c5b8" d="m 20.306644,1042.8144 3.137973,5.4359 a 14,14 0 0 0 4.430603,-4.4514 l -5.421106,-3.1299 a 7.7591009,7.7591009 0 0 1 -2.14747,2.1454 z" color="#000" overflow="visible" style="isolation:auto;mix-blend-mode:normal"/><path fill="#e9eded" style="isolation:auto;mix-blend-mode:normal" d="m 16.504328,1021.3679 -4.18e-4,7.2616 a 7.7591009,7.7591009 0 0 1 2.933897,0.7876 l 3.628373,-6.281 a 15.017598,15.017598 0 0 0 -6.561852,-1.7682 z" color="#000" overflow="visible"/><path fill="#78c8f0" d="m 6.0390739,1036.8643 a 10,10 0 0 0 1.0722531,4.0567 l 1.9414107,-1.1211 a 7.7591009,7.7591009 0 0 1 -0.7910151,-2.9355 l -2.2226651,-10e-5 z" color="#000" overflow="visible" style="isolation:auto;mix-blend-mode:normal"/><path fill="#f8b84e" style="isolation:auto;mix-blend-mode:normal" d="m 15.50391,1024.3644 a 12,12 0 0 0 -5.0704,1.3496 l 2.1348,3.6992 a 7.7591009,7.7591009 0 0 1 2.9356,-0.791 l 0,-4.2578 z" color="#000" overflow="visible"/><path fill="#4bbfeb" d="m 2.7657398,1029.2994 a 15.017598,15.017598 0 0 0 -1.7618302,6.5643 l 7.2663273,0 a 7.7591009,7.7591009 0 0 1 0.7860775,-2.9331 l -6.2905746,-3.6312 z" color="#000" overflow="visible" style="isolation:auto;mix-blend-mode:normal"/><path fill="#f05542" d="m 9.5529901,1040.6662 -6.2807975,3.6273 a 15.017598,15.017598 0 0 0 4.7985919,4.8103 l 3.6292535,-6.2867 a 7.7591009,7.7591009 0 0 1 -2.1470479,-2.1509 z" color="#000" overflow="visible" style="isolation:auto;mix-blend-mode:normal"/><path fill="#25b39e" d="m 19.439576,1043.3158 a 7.7591009,7.7591009 0 0 1 -2.93508,0.7899 l 0,7.2507 a 15.017598,15.017598 0 0 0 6.566288,-1.7481 l -3.631208,-6.2925 z" color="#000" overflow="visible" style="isolation:auto;mix-blend-mode:normal"/><path fill="#fcd062" style="isolation:auto;mix-blend-mode:normal" d="m 8.5800815,1024.5089 a 14,14 0 0 0 -4.4335938,4.4335 l 5.4042969,3.1192 a 7.7591009,7.7591009 0 0 1 2.1484384,-2.1465 l -3.1191415,-5.4062 z" color="#000" overflow="visible"/><path fill="#576d7e" d="m 29.247945,1029.2974 -6.292531,3.6332 a 7.7591009,7.7591009 0 0 1 0.789989,2.9331 l 7.250684,0 a 15.017598,15.017598 0 0 0 -1.748142,-6.5663 z" color="#000" overflow="visible" style="isolation:auto;mix-blend-mode:normal"/><path fill="#34485c" style="isolation:auto;mix-blend-mode:normal" d="m 23.738285,1036.8643 a 7.7591009,7.7591009 0 0 1 -0.787109,2.9336 l 3.671875,2.1211 a 12,12 0 0 0 1.339843,-5.0547 l -4.224609,0 z" color="#000" overflow="visible"/><path fill="#cad1d8" d="m 21.919123,1027.1229 -1.611342,2.7909 a 7.7591009,7.7591009 0 0 1 2.147002,2.1485 l 2.790966,-1.6114 a 11,11 0 0 0 -3.326626,-3.328 z" color="#000" overflow="visible" style="isolation:auto;mix-blend-mode:normal"/><path fill="#f17f53" d="m 12.56815,1043.3116 a 7.7591009,7.7591009 0 0 0 2.935543,0.7837 l 2.17e-4,3.2543 a 11,11 0 0 1 -4.550325,-1.2408 l 1.614565,-2.7972 z" color="#000" overflow="visible" style="isolation:auto;mix-blend-mode:normal"/><path fill="#2b4255" d="m 15.324968,1031.3627 0,0 c -0.48281,0 -0.8522,0.256 -1.07955,0.6113 -0.2414,0.3407 -0.36938,0.7814 -0.49686,1.2357 -0.24141,0.9093 -0.4261,1.889 -0.80954,2.287 l -0.22735,0.2273 0.28406,0.1842 c 0.54003,0.3268 1.07955,0.5686 1.63363,0.7243 0.12798,0.043 0.14203,0.1139 0.15659,0.2273 -0.0141,0.4266 -0.18469,0.7529 -0.46876,1.0655 -0.29812,0.3122 -0.69611,0.5963 -1.12221,0.8808 -0.4261,0.2836 -0.8808,0.5822 -1.22158,0.9371 -0.35533,0.3553 -0.61079,0.8095 -0.61079,1.3495 l 0,0.2695 0.26901,0 c 4.14755,0 5.21305,0 8.73576,0 l 0.27001,0 0,-0.2695 c 0,-0.54 -0.27001,-0.9801 -0.61079,-1.3355 -0.35533,-0.3548 -0.78143,-0.6535 -1.20753,-0.9516 -0.4261,-0.284 -0.83814,-0.5686 -1.13626,-0.8808 -0.28406,-0.3126 -0.4547,-0.6389 -0.4547,-1.0514 0,-0.1707 0.0713,-0.2274 0.12747,-0.2555 0.52547,-0.1421 1.05145,-0.3839 1.57692,-0.7247 l 0.27001,-0.1702 -0.22735,-0.2273 c -0.41205,-0.4261 -0.61079,-1.4063 -0.89486,-2.3151 -0.14203,-0.4543 -0.29862,-0.8949 -0.56813,-1.2358 -0.25546,-0.3412 -0.65345,-0.5826 -1.16487,-0.5826 l -1.02233,0 z"/></g></svg>