<svg xmlns="http://www.w3.org/2000/svg" width="32" height="32" viewBox="0 0 32 32"><g transform="translate(0 -1021.22)"><path fill="none" stroke="#576d7e" d="M13.5 1027.2193l0 20M32 1046.8622l-19 0"/><rect width="2" height="8" x="16" y="1038.362" fill="#25b39e" color="#000" overflow="visible" rx="0" ry="0" style="isolation:auto;mix-blend-mode:normal"/><rect style="isolation:auto;mix-blend-mode:normal" width="2" height="14" x="20" y="1032.362" fill="#25b39e" color="#000" overflow="visible" rx="0" ry="0"/><rect width="2" height="6" x="24" y="1040.362" fill="#25b39e" color="#000" overflow="visible" rx="0" ry="0" style="isolation:auto;mix-blend-mode:normal"/><rect style="isolation:auto;mix-blend-mode:normal" width="2" height="18.571" x="28" y="1027.791" fill="#25b39e" color="#000" overflow="visible" rx="0" ry="0"/><path fill="#2b4255" d="m 2.9915136,1035.3609 0,0 c -0.1396846,0 -0.2634844,0.1244 -0.2634844,0.2633 l 0,1.9064 c 0,0.3877 0.2169204,0.7288 0.5428542,0.9149 l 0,0.4496 c 0,0.03 0.01534,0.061 0.01534,0.095 0,0.061 -0.01534,0.1245 -0.01534,0.1859 l 0,0.8062 c 0,0.8996 0.4338539,1.6746 1.1010676,2.171 -0.061956,0.449 -0.2481451,0.7132 -0.5581999,0.946 -0.3719509,0.2788 -0.8994796,0.4652 -1.457686,0.7131 -0.5582065,0.2328 -1.1470711,0.5271 -1.61215653,1.0233 C 0.29416218,1045.3462 0,1046.0591 0,1047.083 l 0,0.2792 12,0 0,-0.2792 c 0,-0.9927 -0.294716,-1.69 -0.759801,-2.186 -0.449733,-0.4808 -1.023272,-0.7602 -1.5814787,-0.9926 -0.5582065,-0.2328 -1.0698425,-0.4343 -1.4417934,-0.7132 -0.3100548,-0.2481 -0.5116361,-0.5426 -0.5581999,-1.0544 0.6507743,-0.4963 1.0698426,-1.2715 1.0698426,-2.1557 l 0,-0.8063 c 0,-0.061 0,-0.1244 0,-0.1857 0,-0.03 0,-0.061 0,-0.095 l 0,-1.3645 c 0,-0.8996 -0.7291164,-1.6434 -1.628049,-1.6434 l -1.0539568,0 -0.04655,0 -2.0931345,0 c -0.093134,0 -0.2947157,-0.03 -0.449733,-0.095 -0.061956,-0.03 -0.1243455,-0.061 -0.1550241,-0.095 -0.01534,-0.029 -0.031212,-0.047 -0.031212,-0.077 0,-0.1539 -0.123813,-0.2782 -0.2793766,-0.2631 l 0,0 z"/></g></svg>