<svg xmlns="http://www.w3.org/2000/svg" width="32" height="32" viewBox="0 0 32 32"><g transform="translate(0 -1020.363)"><path fill="none" stroke="#f05542" stroke-dashoffset="1.5" stroke-linecap="round" stroke-linejoin="round" d="m 15.999194,1021.8631 a 14.499923,14.499925 0 0 1 13.396182,8.9511 14.499923,14.499925 0 0 1 -3.143188,15.8018 14.499923,14.499925 0 0 1 -15.801875,3.1432 14.499923,14.499925 0 0 1 -8.9510416,-13.3962" color="#000" overflow="visible" style="isolation:auto;mix-blend-mode:normal"/><path fill="none" stroke="#25b39e" stroke-dashoffset="1.5" stroke-linecap="round" stroke-linejoin="round" d="m 26.825404,1030.1123 a 12.500025,12.500027 0 0 1 -2.5835,15.648 12.500025,12.500027 0 0 1 -15.8513721,0.5189 12.500025,12.500027 0 0 1 -3.6013985,-15.4455 12.500025,12.500027 0 0 1 14.4461766,-6.5455" color="#000" overflow="visible" style="isolation:auto;mix-blend-mode:normal"/><path fill="none" stroke="#fcd062" stroke-dashoffset="1.5" stroke-linecap="round" stroke-linejoin="round" d="m 16,1025.8622 a 10.5,10.500002 0 0 1 10.340481,8.6767 10.5,10.500002 0 0 1 -6.74927,11.6901 10.5,10.500002 0 0 1 -12.6844779,-4.6168" color="#000" overflow="visible" style="isolation:auto;mix-blend-mode:normal"/><path fill="none" stroke="#34485c" stroke-dashoffset="1.5" stroke-linecap="round" stroke-linejoin="round" d="m 16,1044.8622 a 8.5,8.500001 0 0 1 -7.852976,-5.2472 8.5,8.500001 0 0 1 1.8425683,-9.2632 8.5,8.500001 0 0 1 9.2632167,-1.8426 8.5,8.500001 0 0 1 5.247191,7.853" color="#000" overflow="visible" style="isolation:auto;mix-blend-mode:normal"/><path fill="#2b4255" d="m 15.32497,1031.3627 0,0 c -0.48281,0 -0.8522,0.256 -1.07955,0.6113 -0.24141,0.3407 -0.36938,0.7814 -0.49686,1.2357 -0.24141,0.9093 -0.4261,1.889 -0.80954,2.287 l -0.22735,0.2273 0.28406,0.1842 c 0.54003,0.3268 1.07955,0.5686 1.63363,0.7243 0.12798,0.043 0.14203,0.1139 0.15659,0.2273 -0.014,0.4266 -0.1847,0.7529 -0.46876,1.0655 -0.29812,0.3122 -0.69611,0.5963 -1.12221,0.8808 -0.4261,0.2836 -0.8808,0.5822 -1.22158,0.9371 -0.35533,0.3553 -0.61079,0.8095 -0.61079,1.3495 l 0,0.2695 0.26901,0 c 4.14755,0 5.21305,0 8.73576,0 l 0.27001,0 0,-0.2695 c 0,-0.54 -0.27001,-0.9801 -0.61079,-1.3355 -0.35533,-0.3548 -0.78143,-0.6535 -1.20753,-0.9516 -0.4261,-0.284 -0.83814,-0.5686 -1.13626,-0.8808 -0.28406,-0.3126 -0.4547,-0.6389 -0.4547,-1.0514 0,-0.1707 0.0713,-0.2274 0.12747,-0.2555 0.52547,-0.1421 1.05145,-0.3839 1.57692,-0.7247 l 0.27001,-0.1702 -0.22735,-0.2273 c -0.41205,-0.4261 -0.61079,-1.4063 -0.89486,-2.3151 -0.14203,-0.4543 -0.29862,-0.8949 -0.56813,-1.2358 -0.25546,-0.3412 -0.65345,-0.5826 -1.16487,-0.5826 l -1.02233,0 z"/></g></svg>