<svg xmlns="http://www.w3.org/2000/svg" width="32" height="32" viewBox="0 0 32 32"><g transform="translate(0 -1020.362)"><path fill="#25b39e" d="m 25.452637,1026.3628 0,0 c 0.675941,0 1.193076,0.3585 1.5114,0.8557 0.337959,0.477 0.517112,1.094 0.6956,1.7302 0.337971,1.2731 0.596538,2.6446 1.133366,3.2017 l 0.318289,0.3184 -0.397704,0.2576 c -0.75602,0.4576 -1.511388,0.7961 -2.287102,1.0142 -0.179164,0.06 -0.198847,0.1594 -0.219227,0.3184 0.01959,0.5969 0.258614,1.0537 0.656282,1.4914 0.417373,0.4373 0.974561,0.8348 1.571098,1.2334 0.596562,0.3967 1.233128,0.815 1.710235,1.3118 0.497453,0.4974 0.855105,1.1332 0.855105,1.8894 l 0,0.3772 -0.376621,0 c -5.80661,0 -7.298317,0 -12.230127,0 l -0.378034,0 0,-0.3772 c 0,-0.7562 0.378034,-1.3726 0.85514,-1.8701 0.497465,-0.4964 1.094004,-0.9147 1.690542,-1.3323 0.59655,-0.3976 1.173394,-0.7958 1.590803,-1.2329 0.397669,-0.4375 0.636531,-0.8946 0.636531,-1.4718 0,-0.239 -0.09987,-0.3184 -0.178441,-0.3579 -0.735663,-0.1989 -1.472037,-0.5373 -2.207687,-1.0145 l -0.378023,-0.2383 0.318289,-0.3181 c 0.576868,-0.5964 0.855117,-1.9689 1.25282,-3.2412 0.198835,-0.6361 0.418063,-1.253 0.795385,-1.7301 0.357652,-0.4777 0.914838,-0.8156 1.630808,-0.8156 l 1.431297,0 z"/><path fill="#f05542" d="m 21.660164,1027.3629 0,0 c 0.772505,0 1.363524,0.4097 1.72732,0.9779 0.38624,0.5454 0.590984,1.2504 0.794973,1.9774 0.386252,1.455 0.681762,3.0224 1.295272,3.6591 l 0.363773,0.3638 -0.454527,0.2946 c -0.864037,0.523 -1.727297,0.9097 -2.613825,1.1589 -0.204767,0.067 -0.227269,0.1822 -0.250549,0.3638 0.0224,0.6824 0.295544,1.2045 0.750025,1.7046 0.477007,0.4999 1.113786,0.9542 1.795548,1.4096 0.681785,0.4535 1.409295,0.9315 1.954554,1.4992 C 27.591256,1041.3402 28,1042.067 28,1042.9311 l 0,0.4311 -0.430425,0 c -6.636145,0 -8.340949,0 -13.97732,0 l -0.432036,0 0,-0.4311 c 0,-0.8641 0.432036,-1.5686 0.977306,-2.1371 0.568527,-0.5676 1.25029,-1.0455 1.932051,-1.5227 0.681774,-0.4543 1.341033,-0.9094 1.818051,-1.4091 0.454493,-0.5 0.727477,-1.0224 0.727477,-1.6822 0,-0.273 -0.114172,-0.3638 -0.203932,-0.4089 -0.840757,-0.2273 -1.682337,-0.6139 -2.523082,-1.1593 l -0.432023,-0.2725 0.36376,-0.3635 c 0.659283,-0.6816 0.977283,-2.2501 1.431799,-3.7043 0.227246,-0.727 0.477795,-1.4318 0.909008,-1.9774 0.408756,-0.5458 1.045546,-0.9319 1.8638,-0.9319 l 1.635752,0 z"/><path fill="#25b39e" d="m 6.5473225,1026.3628 0,0 c -0.6759411,0 -1.1930761,0.3585 -1.5114,0.8557 -0.3379589,0.477 -0.5171116,1.094 -0.6955994,1.7302 -0.3379705,1.2731 -0.5965381,2.6446 -1.1333662,3.2017 l -0.318289,0.3184 0.3977037,0.2576 c 0.7560209,0.4576 1.5113883,0.7961 2.2871025,1.0142 0.1791643,0.06 0.198846,0.1594 0.2192276,0.3184 -0.0196,0.5969 -0.2586142,1.0537 -0.6562829,1.4914 -0.4173736,0.4373 -0.9745601,0.8348 -1.5710981,1.2334 -0.5965614,0.3967 -1.2331276,0.815 -1.7102344,1.3118 -0.4974533,0.4974 -0.8551055,1.1332 -0.8551055,1.8894 l 0,0.3772 0.3766221,0 c 5.8066092,0 7.298316,0 12.2301261,0 l 0.378034,0 0,-0.3772 c 0,-0.7562 -0.378034,-1.3726 -0.85514,-1.8701 -0.497465,-0.4964 -1.094004,-0.9147 -1.690542,-1.3323 -0.59655,-0.3976 -1.173394,-0.7958 -1.5908026,-1.2329 -0.3976688,-0.4375 -0.6365313,-0.8946 -0.6365313,-1.4718 0,-0.239 0.099866,-0.3184 0.178441,-0.3579 0.7356629,-0.1989 1.4720369,-0.5373 2.2076869,-1.0145 l 0.378023,-0.2383 -0.318289,-0.3181 c -0.576868,-0.5964 -0.855117,-1.9689 -1.25282,-3.2412 -0.198835,-0.6361 -0.4180628,-1.253 -0.7953849,-1.7301 -0.3576521,-0.4777 -0.9148386,-0.8156 -1.6308079,-0.8156 l -1.431297,0 z"/><path fill="#f05542" d="m 10.339836,1027.3629 0,0 c -0.7725058,0 -1.3635244,0.4097 -1.7273198,0.9779 -0.3862411,0.5454 -0.5909846,1.2504 -0.7949737,1.9774 -0.3862526,1.455 -0.681762,3.0224 -1.2952723,3.6591 l -0.3637726,0.3638 0.4545271,0.2946 c 0.8640368,0.523 1.7272965,0.9097 2.6138247,1.1589 0.2047658,0.067 0.2272688,0.1822 0.2505488,0.3638 -0.0224,0.6824 -0.2955432,1.2045 -0.7500245,1.7046 -0.4770072,0.4999 -1.1137861,0.9542 -1.7955481,1.4096 -0.6817848,0.4535 -1.4092955,0.9315 -1.9545542,1.4992 C 4.408744,1041.3402 4,1042.067 4,1042.9311 l 0,0.4311 0.4304241,0 c 6.6361449,0 8.3409499,0 13.9773199,0 l 0.432036,0 0,-0.4311 c 0,-0.8641 -0.432036,-1.5686 -0.977306,-2.1371 -0.568527,-0.5676 -1.250289,-1.0455 -1.932051,-1.5227 -0.681773,-0.4543 -1.341032,-0.9094 -1.818051,-1.4091 -0.454493,-0.5 -0.727477,-1.0224 -0.727477,-1.6822 0,-0.273 0.114173,-0.3638 0.203933,-0.4089 0.840756,-0.2273 1.682336,-0.6139 2.523082,-1.1593 l 0.432023,-0.2725 -0.363761,-0.3635 c -0.659282,-0.6816 -0.977282,-2.2501 -1.431798,-3.7043 -0.227247,-0.727 -0.477796,-1.4318 -0.909009,-1.9774 -0.408755,-0.5458 -1.045545,-0.9319 -1.8638,-0.9319 l -1.635752,0 z"/><path fill="#2b4255" d="m 14.784947,1028.3629 0,0 c -0.869063,0 -1.533971,0.461 -1.943231,1.1003 -0.434508,0.6134 -0.66486,1.4068 -0.894336,2.2246 -0.434532,1.6367 -0.766979,3.4001 -1.457183,4.1163 l -0.409236,0.4094 0.511332,0.3314 c 0.972048,0.5882 1.943207,1.0235 2.940551,1.3038 0.230351,0.077 0.255671,0.2049 0.281868,0.4093 -0.0252,0.7677 -0.332497,1.3549 -0.84378,1.9177 -0.536628,0.5622 -1.253004,1.0733 -2.019995,1.5858 -0.766992,0.5101 -1.5854522,1.0479 -2.198856,1.6865 -0.6395876,0.6395 -1.0994275,1.4571 -1.0994275,2.4292 l 0,0.485 0.4842238,0 c 7.4656417,0 9.3835397,0 15.7244447,0 l 0.486024,0 0,-0.485 c 0,-0.9721 -0.486024,-1.7645 -1.099452,-2.4042 -0.639599,-0.6385 -1.406577,-1.1763 -2.173558,-1.7129 -0.766992,-0.5112 -1.508652,-1.0234 -2.04529,-1.5854 -0.511309,-0.5625 -0.818424,-1.1502 -0.818424,-1.8924 0,-0.3072 0.128447,-0.4094 0.229427,-0.4601 0.945853,-0.2556 1.892628,-0.6906 2.838468,-1.3042 l 0.486011,-0.3065 -0.409235,-0.4089 c -0.741684,-0.7669 -1.099429,-2.5315 -1.610747,-4.1674 -0.25566,-0.8178 -0.537528,-1.6109 -1.022653,-2.2246 -0.459827,-0.614 -1.176215,-1.0484 -2.096758,-1.0484 l -1.840212,0 z"/></g></svg>