<svg xmlns="http://www.w3.org/2000/svg" width="32" height="32" viewBox="0 0 32 32"><g transform="translate(581 -1336.362)"><g fill="#cad1d8" transform="translate(-581 316)"><path style="isolation:auto;mix-blend-mode:normal" d="M16.5 1021.3798l0 7.2578a7.7500086 7.7500086 0 0 1 2.929688.7851l3.626953-6.2832A15 15 0 0 0 16.5 1021.3798zM15.5 1021.3876a15 15 0 0 0-6.5585938 1.7461l3.6269528 6.2851A7.7500086 7.7500086 0 0 1 15.5 1028.6298l0-7.2422zM23.925781 1023.6376l-3.626953 6.2812a7.7500086 7.7500086 0 0 1 2.144531 2.1465l6.275391-3.6211a15 15 0 0 0-4.792969-4.8066zM8.0800781 1023.6454a15 15 0 0 0-4.8066406 4.793l6.28125 3.6269a7.7500086 7.7500086 0 0 1 2.1464845-2.1445l-3.6210939-6.2754zM29.228516 1029.3036l-6.285157 3.6289a7.7500086 7.7500086 0 0 1 .789063 2.9297l7.242187 0a15 15 0 0 0-1.746093-6.5586zM2.7773438 1029.3056a15 15 0 0 0-1.7597657 6.5566l7.2578125 0a7.7500086 7.7500086 0 0 1 .7851563-2.9297l-6.2832031-3.6269zM1.0253906 1036.8622a15 15 0 0 0 1.7480469 6.5605l6.2832031-3.6289a7.7500086 7.7500086 0 0 1-.7890625-2.9316l-7.2421875 0zM23.724609 1036.8622a7.7500086 7.7500086 0 0 1-.785156 2.9297l6.283203 3.6289a15 15 0 0 0 1.759766-6.5586l-7.257813 0zM9.5566406 1040.6591l-6.2734375 3.623a15 15 0 0 0 4.7929688 4.8047l3.6250001-6.2793a7.7500086 7.7500086 0 0 1-2.1445314-2.1484zM22.445312 1040.661a7.7500086 7.7500086 0 0 1-2.148437 2.1446l3.623047 6.2734a15 15 0 0 0 4.804687-4.793l-6.279297-3.625zM12.572266 1043.3017l-3.6289066 6.2832A15 15 0 0 0 15.5 1051.3446l0-7.2578a7.7500086 7.7500086 0 0 1-2.927734-.7851zM19.431641 1043.3056A7.7500086 7.7500086 0 0 1 16.5 1044.0946l0 7.2422a15 15 0 0 0 6.558594-1.7461l-3.626953-6.2851z" color="#000" overflow="visible"/></g><path fill="#25b39e" d="m -564.5,1337.3798 0,7.2578 a 7.7500086,7.7500086 0 0 1 2.92969,0.7851 l 3.62695,-6.2832 a 15,15 0 0 0 -6.55664,-1.7597 z" color="#000" overflow="visible" style="isolation:auto;mix-blend-mode:normal"/><path fill="#cad1d8" d="m -565.5,1337.3876 a 15,15 0 0 0 -6.55859,1.7461 l 3.62695,6.2851 a 7.7500086,7.7500086 0 0 1 2.93164,-0.789 l 0,-7.2422 z" color="#000" overflow="visible" style="isolation:auto;mix-blend-mode:normal"/><path fill="#25b39e" d="M-557.07422 1339.6376l-3.62695 6.2812a7.7500086 7.7500086 0 0 1 2.14453 2.1465l6.27539-3.6211a15 15 0 0 0-4.79297-4.8066zM-572.91992 1339.6454a15 15 0 0 0-4.80664 4.793l6.28125 3.6269a7.7500086 7.7500086 0 0 1 2.14648-2.1445l-3.62109-6.2754zM-551.77148 1345.3036l-6.28516 3.6289a7.7500086 7.7500086 0 0 1 .78906 2.9297l7.24219 0a15 15 0 0 0-1.74609-6.5586zM-578.22266 1345.3056a15 15 0 0 0-1.75976 6.5566l7.25781 0a7.7500086 7.7500086 0 0 1 .78516-2.9297l-6.28321-3.6269zM-579.97461 1352.8622a15 15 0 0 0 1.74805 6.5605l6.2832-3.6289a7.7500086 7.7500086 0 0 1-.78906-2.9316l-7.24219 0zM-557.27539 1352.8622a7.7500086 7.7500086 0 0 1-.78516 2.9297l6.28321 3.6289a15 15 0 0 0 1.75976-6.5586l-7.25781 0zM-571.44336 1356.6591l-6.27344 3.623a15 15 0 0 0 4.79297 4.8047l3.625-6.2793a7.7500086 7.7500086 0 0 1-2.14453-2.1484zM-558.55469 1356.661a7.7500086 7.7500086 0 0 1-2.14843 2.1446l3.62304 6.2734a15 15 0 0 0 4.80469-4.793l-6.2793-3.625zM-568.42773 1359.3017l-3.62891 6.2832a15 15 0 0 0 6.55664 1.7597l0-7.2578a7.7500086 7.7500086 0 0 1-2.92773-.7851zM-561.56836 1359.3056a7.7500086 7.7500086 0 0 1-2.93164.789l0 7.2422a15 15 0 0 0 6.55859-1.7461l-3.62695-6.2851z" color="#000" overflow="visible" style="isolation:auto;mix-blend-mode:normal"/><circle style="isolation:auto;mix-blend-mode:normal" cx="-565" cy="1352.362" r="6" fill="#cad1d8" color="#000" overflow="visible"/><path fill="#25b39e" style="isolation:auto;mix-blend-mode:normal" d="m -565,1346.3622 a 6.0000086,6.0000086 0 0 1 5.93752,5.1363 6.0000086,6.0000086 0 0 1 -4.22819,6.6151 6.0000086,6.0000086 0 0 1 -7.15476,-3.232 6.0000086,6.0000086 0 0 1 2.16844,-7.5455 l 3.27699,5.0261 z" color="#000" overflow="visible"/></g></svg>