<svg xmlns="http://www.w3.org/2000/svg" width="32" height="32" viewBox="0 0 32 32"><g transform="translate(0 -1020.362)"><path fill="none" stroke="#f05542" stroke-dashoffset="1.1" stroke-linejoin="round" stroke-width="4" style="isolation:auto;mix-blend-mode:normal" d="m 3.8756441,1043.3622 a 13.999999,13.999999 0 0 1 3e-7,-14 13.999999,13.999999 0 0 1 12.1243546,-7" color="#000" overflow="visible"/><circle style="isolation:auto;mix-blend-mode:normal" cx="16" cy="1036.362" r="10" fill="#f05542" color="#000" overflow="visible"/><path fill="#2b4255" style="isolation:auto;mix-blend-mode:normal" d="m 26,1036.3622 a 10,10 0 0 1 -7.41181,9.6592 10,10 0 0 1 -11.2484441,-4.6592 l 8.6602541,-5 z" color="#000" overflow="visible"/><path fill="#25b39e" d="m 16,1026.3622 a 10,10 0 0 1 9.459867,6.7579 10,10 0 0 1 -3.325988,11.1399 L 16,1036.3622 Z" color="#000" overflow="visible" style="isolation:auto;mix-blend-mode:normal"/><path fill="#f8b84e" style="isolation:auto;mix-blend-mode:normal" d="m 16,1026.3622 a 10,10 0 0 1 9.659258,7.4118 L 16,1036.3622 Z" color="#000" overflow="visible"/><path fill="none" stroke="#2b4255" stroke-dashoffset="1.1" stroke-linejoin="round" stroke-width="4" style="isolation:auto;mix-blend-mode:normal" d="m 24.547205,1047.4503 a 13.999999,13.999999 0 0 1 -11.263283,2.6459 13.999999,13.999999 0 0 1 -9.4082779,-6.734" color="#000" overflow="visible"/><path fill="none" stroke="#f8b84e" stroke-dashoffset="1.1" stroke-linejoin="round" stroke-width="4" d="m 15.999999,1022.3622 a 13.999999,13.999999 0 0 1 13.522961,10.3765" color="#000" overflow="visible" style="isolation:auto;mix-blend-mode:normal"/><path fill="none" stroke="#25b39e" stroke-dashoffset="1.1" stroke-linejoin="round" stroke-width="4" style="isolation:auto;mix-blend-mode:normal" d="m 29.52296,1032.7387 a 13.999999,13.999999 0 0 1 -5.014656,14.7414" color="#000" overflow="visible"/></g></svg>