<svg xmlns="http://www.w3.org/2000/svg" width="32" height="32" viewBox="0 0 32 32"><g transform="translate(0 -1021.41)"><g transform="matrix(.66745 0 0 .66745 5.32 342.643)"><path fill="#f8b84e" d="M16.5 1021.3798l0 7.2578a7.7500086 7.7500086 0 0 1 2.929688.7851l3.626953-6.2832A15 15 0 0 0 16.5 1021.3798zM15.5 1021.3876a15 15 0 0 0-6.5585938 1.7461l3.6269528 6.2851A7.7500086 7.7500086 0 0 1 15.5 1028.6298l0-7.2422zM23.925781 1023.6376l-3.626953 6.2812a7.7500086 7.7500086 0 0 1 2.144531 2.1465l6.275391-3.6211a15 15 0 0 0-4.792969-4.8066zM8.0800781 1023.6454a15 15 0 0 0-4.8066406 4.793l6.28125 3.6269a7.7500086 7.7500086 0 0 1 2.1464845-2.1445l-3.6210939-6.2754zM29.228516 1029.3036l-6.285157 3.6289a7.7500086 7.7500086 0 0 1 .789063 2.9297l7.242187 0a15 15 0 0 0-1.746093-6.5586zM2.7773438 1029.3056a15 15 0 0 0-1.7597657 6.5566l7.2578125 0a7.7500086 7.7500086 0 0 1 .7851563-2.9297l-6.2832031-3.6269zM1.0253906 1036.8622a15 15 0 0 0 1.7480469 6.5605l6.2832031-3.6289a7.7500086 7.7500086 0 0 1-.7890625-2.9316l-7.2421875 0zM23.724609 1036.8622a7.7500086 7.7500086 0 0 1-.785156 2.9297l6.283203 3.6289a15 15 0 0 0 1.759766-6.5586l-7.257813 0zM9.5566406 1040.6591l-6.2734375 3.623a15 15 0 0 0 4.7929688 4.8047l3.6250001-6.2793a7.7500086 7.7500086 0 0 1-2.1445314-2.1484zM22.445312 1040.661a7.7500086 7.7500086 0 0 1-2.148437 2.1446l3.623047 6.2734a15 15 0 0 0 4.804687-4.793l-6.279297-3.625zM12.572266 1043.3017l-3.6289066 6.2832A15 15 0 0 0 15.5 1051.3446l0-7.2578a7.7500086 7.7500086 0 0 1-2.927734-.7851zM19.431641 1043.3056A7.7500086 7.7500086 0 0 1 16.5 1044.0946l0 7.2422a15 15 0 0 0 6.558594-1.7461l-3.626953-6.2851z" color="#000" overflow="visible" style="isolation:auto;mix-blend-mode:normal"/></g><path fill="#f17f53" style="isolation:auto;mix-blend-mode:normal" d="m 16.333724,1024.3622 0,4.8442 a 5.1727342,5.1727342 0 0 1 1.955419,0.524 l 2.420803,-4.1937 a 10.011732,10.011732 0 0 0 -4.376222,-1.1745 z" color="#000" overflow="visible"/><path fill="#25b39e" style="isolation:auto;mix-blend-mode:normal" d="m 15.666276,1024.3674 a 10.011732,10.011732 0 0 0 -4.377524,1.1654 l 2.420804,4.195 a 5.1727342,5.1727342 0 0 1 1.95672,-0.5266 l 0,-4.8338 z" color="#000" overflow="visible"/><path fill="#f05542" style="isolation:auto;mix-blend-mode:normal" d="m 21.290053,1025.8692 -2.420804,4.1923 a 5.1727342,5.1727342 0 0 1 1.431364,1.4327 l 4.188502,-2.4169 a 10.011732,10.011732 0 0 0 -3.199062,-3.2081 z" color="#000" overflow="visible"/><path fill="#60c5b8" style="isolation:auto;mix-blend-mode:normal" d="M10.713859 1025.8744a10.011732 10.011732 0 0 0-3.2081866 3.1991l4.1924126 2.4207a5.1727342 5.1727342 0 0 1 1.432666-1.4313l-2.416892-4.1885zM24.82936 1029.6509l-4.195023 2.4221a5.1727342 5.1727342 0 0 1 .526658 1.9555l4.833791 0a10.011732 10.011732 0 0 0-1.165426-4.3776z" color="#000" overflow="visible"/><path fill="#f05542" style="isolation:auto;mix-blend-mode:normal" d="m 7.174551,1029.6523 a 10.011732,10.011732 0 0 0 -1.1745497,4.3762 l 4.8442167,0 a 5.1727342,5.1727342 0 0 1 0.524054,-1.9555 l -4.193721,-2.4207 z" color="#000" overflow="visible"/><path fill="#f17f53" style="isolation:auto;mix-blend-mode:normal" d="m 6.0052141,1034.6959 a 10.011732,10.011732 0 0 0 1.1667339,4.3788 l 4.193714,-2.4221 a 5.1727342,5.1727342 0 0 1 -0.526657,-1.9567 l -4.8337909,0 z" color="#000" overflow="visible"/><path fill="#25b39e" style="isolation:auto;mix-blend-mode:normal" d="M21.155782 1034.6959a5.1727342 5.1727342 0 0 1-.524054 1.9554l4.193721 2.4221a10.011732 10.011732 0 0 0 1.17455-4.3775l-4.844217 0zM11.699387 1037.2301l-4.1872003 2.4182a10.011732 10.011732 0 0 0 3.1990623 3.2069l2.419502-4.1911a5.1727342 5.1727342 0 0 1-1.431364-1.434z" color="#000" overflow="visible"/><path fill="#f05542" style="isolation:auto;mix-blend-mode:normal" d="m 20.301915,1037.2314 a 5.1727342,5.1727342 0 0 1 -1.433967,1.4314 l 2.418193,4.1872 a 10.011732,10.011732 0 0 0 3.206885,-3.1991 l -4.191111,-2.4195 z" color="#000" overflow="visible"/><path fill="#60c5b8" style="isolation:auto;mix-blend-mode:normal" d="m 13.712166,1038.9939 -2.422112,4.1938 a 10.011732,10.011732 0 0 0 4.376222,1.1745 l 0,-4.8442 a 5.1727342,5.1727342 0 0 1 -1.95411,-0.5241 z" color="#000" overflow="visible"/><path fill="#f17f53" style="isolation:auto;mix-blend-mode:normal" d="m 18.290444,1038.9966 a 5.1727342,5.1727342 0 0 1 -1.95672,0.5266 l 0,4.8338 a 10.011732,10.011732 0 0 0 4.377524,-1.1655 l -2.420804,-4.1949 z" color="#000" overflow="visible"/><path fill="#fcd062" style="isolation:auto;mix-blend-mode:normal" d="m 16,1027.3622 a 7.0000024,7.0000024 0 0 0 -7,7 7.0000024,7.0000024 0 0 0 0.029297,0.5996 c 0.3025991,4.5296 3.939453,5.5896 3.939453,8.4942 l 0.796875,0 C 13.328722,1043.5632 13,1043.9382 13,1044.4091 l 0,4 c 0,0.554 0.44599,1 1,1 l 4,0 c 0.55401,0 1,-0.446 1,-1 l 0,-4 c 0,-0.4709 -0.328722,-0.8459 -0.765625,-0.9531 l 0.796875,0 c 0,-2.8832 3.584741,-3.9488 3.933594,-8.3946 A 7.0000024,7.0000024 0 0 0 23,1034.3622 a 7.0000024,7.0000024 0 0 0 -7,-7 z" color="#000" overflow="visible"/><path fill="#576d7e" d="m 13,1043.456 0,0.9531 0,4 c 0,0.554 0.44599,1 1,1 l 4,0 c 0.55401,0 1,-0.446 1,-1 l 0,-4 0,-0.9531 z" color="#000" overflow="visible" style="isolation:auto;mix-blend-mode:normal"/><path fill="none" stroke="#2b4255" stroke-linecap="round" stroke-linejoin="round" d="M12.507703 1043.9091l6.984593 0M12.507703 1045.9091l6.984593 0M12.507703 1047.9091l6.984593 0"/></g></svg>