<svg xmlns="http://www.w3.org/2000/svg" width="32" height="32" viewBox="0 0 32 32"><g transform="translate(0 -1019.386)"><path fill="#60c5b8" style="isolation:auto;mix-blend-mode:normal" d="m 14.357142,1022.3622 c -0.227534,0 -0.410714,0.1832 -0.410714,0.4108 l 0,2.3006 a 9.0357142,9.0357142 0 0 0 -2.711355,1.1182 l -1.623606,-1.6236 c -0.1608914,-0.1609 -0.419883,-0.1609 -0.580775,0 l -2.324707,2.3247 c -0.1608921,0.1609 -0.1608921,0.4198 0,0.5807 l 1.6268135,1.6269 a 9.0357142,9.0357142 0 0 0 -1.1230468,2.7081 l -2.2990375,0 C 4.6831786,1031.8086 4.5,1031.9918 4.5,1032.2194 l 0,3.2856 c 0,0.2276 0.1831786,0.4108 0.4107142,0.4108 l 2.3006417,0 a 9.0357142,9.0357142 0 0 0 1.118234,2.7114 l -1.6236049,1.6236 c -0.1608921,0.1609 -0.1608921,0.4198 0,0.5807 l 2.324707,2.3247 c 0.160892,0.1609 0.4198836,0.1609 0.580775,0 l 1.626815,-1.6268 a 9.0357142,9.0357142 0 0 0 2.708146,1.1231 l 0,2.2989 c 0,0.2276 0.18318,0.4108 0.410714,0.4108 l 3.285716,0 c 0.227534,0 0.410714,-0.1832 0.410714,-0.4108 l 0,-2.3006 a 9.0357142,9.0357142 0 0 0 2.711355,-1.1182 l 1.623605,1.6236 c 0.160893,0.1609 0.419884,0.1609 0.580776,0 l 2.324707,-2.3247 c 0.160892,-0.1609 0.160892,-0.4198 0,-0.5807 l -1.626813,-1.6269 a 9.0357142,9.0357142 0 0 0 1.123047,-2.7081 l 2.299037,0 c 0.227536,0 0.410714,-0.1832 0.410714,-0.4108 l 0,-3.2856 c 0,-0.2276 -0.183178,-0.4108 -0.410714,-0.4108 l -2.300642,0 a 9.0357142,9.0357142 0 0 0 -1.118234,-2.7114 l 1.623605,-1.6236 c 0.160892,-0.1609 0.160892,-0.4198 0,-0.5807 l -2.324707,-2.3247 c -0.160892,-0.1609 -0.419883,-0.1609 -0.580776,0 l -1.626814,1.6268 a 9.0357142,9.0357142 0 0 0 -2.708146,-1.1231 l 0,-2.2989 c 0,-0.2276 -0.18318,-0.4108 -0.410714,-0.4108 l -3.285716,0 z" color="#000" overflow="visible"/><g transform="translate(0 -.477)"><path fill="#fcd062" style="isolation:auto;mix-blend-mode:normal" d="m 16,1026.8388 a 7.0000024,7.0000024 0 0 0 -7,7 7.0000024,7.0000024 0 0 0 0.029297,0.5996 c 0.3025991,4.5296 3.939453,5.5896 3.939453,8.4942 l 0.796875,0 C 13.328722,1043.0398 13,1043.4148 13,1043.8857 l 0,4 c 0,0.554 0.44599,1 1,1 l 4,0 c 0.55401,0 1,-0.446 1,-1 l 0,-4 c 0,-0.4709 -0.328722,-0.8459 -0.765625,-0.9531 l 0.796875,0 c 0,-2.8832 3.584741,-3.9488 3.933594,-8.3946 A 7.0000024,7.0000024 0 0 0 23,1033.8388 a 7.0000024,7.0000024 0 0 0 -7,-7 z" color="#000" overflow="visible"/><path fill="#576d7e" d="m 13,1042.9326 0,0.9531 0,4 c 0,0.554 0.44599,1 1,1 l 4,0 c 0.55401,0 1,-0.446 1,-1 l 0,-4 0,-0.9531 z" color="#000" overflow="visible" style="isolation:auto;mix-blend-mode:normal"/><path fill="none" stroke="#2b4255" stroke-linecap="round" stroke-linejoin="round" d="M12.507703 1043.3857l6.984593 0M12.507703 1045.3857l6.984593 0M12.507703 1047.3857l6.984593 0"/></g></g></svg>