<svg xmlns="http://www.w3.org/2000/svg" width="32" height="32" viewBox="0 0 32 32"><g transform="translate(0 -1020.362)"><rect style="isolation:auto;mix-blend-mode:normal" width="1" height="32" x="15.5" y="1020.362" fill="#576d7e" color="#000" overflow="visible" rx="0" ry="0"/><circle style="isolation:auto;mix-blend-mode:normal" cx="16" cy="1024.862" r="1.5" fill="#576d7e" color="#000" overflow="visible"/><circle cx="16" cy="1048.862" r="1.5" fill="#576d7e" color="#000" overflow="visible" style="isolation:auto;mix-blend-mode:normal"/><circle style="isolation:auto;mix-blend-mode:normal" cx="16" cy="1036.862" r="1.5" fill="#576d7e" color="#000" overflow="visible"/><circle cx="16" cy="1030.862" r="1.5" fill="#576d7e" color="#000" overflow="visible" style="isolation:auto;mix-blend-mode:normal"/><circle style="isolation:auto;mix-blend-mode:normal" cx="16" cy="1042.862" r="1.5" fill="#576d7e" color="#000" overflow="visible"/><path fill="#cad1d8" style="isolation:auto;mix-blend-mode:normal" d="M7.0000174 1029.3622l4.9999656 0 .000017 1 2 .5-2 .5 0 1-4.9999826 0-.0000174 0 0-3zM24.999983 1023.3622l-4.999966 0-.000017 1-2 .5 2 .5 0 1 4.999983 0 .000017 0 0-3zM7.0000174 1041.3622l4.9999656 0 .000017 1 2 .5-2 .5 0 1-4.9999826 0-.0000174 0 0-3zM24.999983 1035.3622l-4.999966 0-.000017 1-2 .5 2 .5 0 1 4.999983 0 .000017 0 0-3zM24.999983 1047.3622l-4.999966 0-.000017 1-2 .5 2 .5 0 1 4.999983 0 .000017 0 0-3z" color="#000" overflow="visible"/></g></svg>