<svg xmlns="http://www.w3.org/2000/svg" width="32" height="32" viewBox="0 0 32 32"><g transform="translate(0 -1020.362)"><path fill="none" stroke="#576d7e" d="M2.5 1022.3622l0 28M30.000001 1049.8622L2 1049.8622"/><rect style="isolation:auto;mix-blend-mode:normal" width="2" height="15" x="8" y="1034.362" fill="#25b39e" color="#000" overflow="visible" rx="0" ry="0"/><rect width="2" height="12" x="6" y="1037.362" fill="#f05542" color="#000" overflow="visible" rx="0" ry="0" style="isolation:auto;mix-blend-mode:normal"/><rect width="2" height="20" x="14" y="1029.362" fill="#25b39e" color="#000" overflow="visible" rx="0" ry="0" style="isolation:auto;mix-blend-mode:normal"/><rect style="isolation:auto;mix-blend-mode:normal" width="2" height="7" x="12" y="1042.362" fill="#f05542" color="#000" overflow="visible" rx="0" ry="0"/><rect style="isolation:auto;mix-blend-mode:normal" width="2" height="9" x="20" y="1040.362" fill="#25b39e" color="#000" overflow="visible" rx="0" ry="0"/><rect width="2" height="12" x="18" y="1037.362" fill="#f05542" color="#000" overflow="visible" rx="0" ry="0" style="isolation:auto;mix-blend-mode:normal"/><rect width="2" height="26" x="26" y="1023.362" fill="#25b39e" color="#000" overflow="visible" rx="0" ry="0" style="isolation:auto;mix-blend-mode:normal"/><rect style="isolation:auto;mix-blend-mode:normal" width="2" height="19" x="24" y="1030.362" fill="#f05542" color="#000" overflow="visible" rx="0" ry="0"/></g></svg>