<svg xmlns="http://www.w3.org/2000/svg" width="32" height="32" viewBox="0 0 32 32"><g transform="translate(-.009 -1020.362)"><path fill="none" stroke="#2b4255" d="M28 1035.3622l3 0M29.8964 1033.948l1.4143 1.4142-1.4143 1.4142M4.0178318 1035.3622l-3 0M2.1214318 1033.948l-1.41430002 1.4142 1.41430002 1.4142M25.158967 1027.2032l2.12132-2.1213M25.499924 1024.8623l2.000061-.0001-.00006 2.0001M5.8410337 1043.5211l-2.1213204 2.1214M3.5000761 1043.8621l-.0000609 2.0001 2.0000615-.0001M27.158967 1043.5211l2.12132 2.1214M29.499925 1043.8621l.00006 2.0001-2.000061-.0001M6.8410336 1027.2032l-2.1213203-2.1213M6.5000766 1024.8623l-2.0000614-.0001.0000608 2.0001"/><g transform="translate(592.548 -274.5)"><path fill="#4bbfeb" d="m -572.63,1298.3956 c 4.45627,3.9335 7.04082,12.4153 5.66391,19.467 l -3.68351,0.01"/><path fill="#78c8f0" d="m -582.88281,300.50586 c -0.82901,0 -1.49681,0.66591 -1.5,1.49414 -1e-5,0.002 0,0.004 0,0.006 l 0,2.99414 13.83203,0 0,-2.99414 c 0,-0.002 10e-6,-0.004 0,-0.006 -0.003,-0.82823 -0.67099,-1.49414 -1.5,-1.49414 l -10.83203,0 z" transform="translate(0 1020.362)"/><path fill="#4bbfeb" d="m -572.63,1298.3956 c 4.45627,3.9335 7.04082,12.4153 5.66391,19.467 l -3.68351,0.01"/><path fill="#78c8f0" fill-rule="evenodd" d="m -575.12305,277.58203 c -0.88481,1.2289 -2.34366,1.95224 -3.89453,1.93164 -0.58157,1.5134 -2.09696,2.65305 -3.98828,2.99805 -1.42044,0.107 -2.5947,1.03418 -2.92187,2.30078 -0.22135,0.85688 -0.0134,1.73303 0.51367,2.42188 0.0504,-0.0777 0.1214,-0.13994 0.20508,-0.17969 0.88122,-0.4208 1.6938,-0.90386 2.42578,-1.43946 0.0765,-0.0578 0.16805,-0.0924 0.26367,-0.0996 0.50569,-0.0391 0.74165,0.61259 0.32812,0.90626 -0.76118,0.55707 -1.60141,1.05411 -2.50195,1.49023 0.0794,0.0542 0.1546,0.11218 0.24024,0.16016 1.1846,0.66358 2.69809,0.53581 3.76402,-0.27403 0.0201,-0.0153 0.18139,-0.15705 0.18139,-0.15705 0,0 0.10146,0.0736 0.1655,0.0857 2.08302,0.81657 4.67609,0.4327 6.20744,-0.99254 l -0.72265,0.58984 c -0.98474,1.2747 -1.04747,2.3119 -4.65625,3.2207 -3.60877,0.9088 -4.97176,4.81853 -4.24414,7.98633 l 1.75586,-0.0117 0,2.98438 9.0039,0 -0.002,-3.00782 2.16211,0 c 2.82958,-6.1974 2.33855,-13.67707 -1.16406,-18.98437 z" transform="translate(0 1020.362)"/><path fill="#fff" fill-rule="evenodd" d="m -577.63867,1302.3711 a 0.50005,0.50005 0 1 0 0,1 l 1,0 a 0.50005,0.50005 0 1 0 0,-1 l -1,0 z" color="#000" font-family="sans-serif" font-weight="400" overflow="visible" white-space="normal" style="line-height:normal;text-indent:0;text-align:start;text-decoration-line:none;text-decoration-style:solid;text-decoration-color:#000;text-transform:none;block-progression:tb;isolation:auto;mix-blend-mode:normal"/><path fill="#fff" fill-rule="evenodd" d="m -574.55555,1307.1414 -0.30178,0.5458 c -0.98474,1.2747 -0.4295,2.3103 -4.03827,3.2191 -3.60877,0.9088 -5.08251,4.8184 -4.35489,7.9862 l 1.66881,-0.01 c -1.15173,-4.2984 1.14247,-5.8499 3.60016,-6.9077 2.30066,-0.9902 3.42597,-1.287 3.42597,-4.8384 z"/><path fill="#fff" fill-rule="evenodd" d="m -575.69531,278.76562 c -0.85404,0.70687 -1.90866,1.13332 -3.05469,1.17969 -0.72865,1.5497 -2.2515,2.70549 -4.16602,3.05469 a 0.50004997,0.50004997 0 0 1 -0.0508,0.0117 c -1.22523,0.0923 -2.20912,0.88473 -2.47851,1.92773 -0.154,0.59613 -0.0554,1.19983 0.24219,1.71875 -0.0322,-1.57408 1.37866,-2.49993 3.74804,-2.9707 1.22732,-0.2439 2.56663,-1.23565 3.14453,-2.62305 0.49084,-1.17836 1.83904,-1.61044 2.61524,-2.29883 z" transform="translate(0 1020.362)"/><path fill="#78c8f0" d="m -572.1522,1301.8672 c 0.6869,-2.6423 -0.98307,-5.3198 -3.82056,-6.0046 0.30102,0.3548 0.65744,1.319 0.84589,2.1207 0.18845,0.8017 0.0837,1.3352 -0.0767,1.8824"/><path fill="#4bbfeb" d="m -572.1522,1302.1485 c 0.6869,-2.6423 -0.8478,-5.7863 -3.82056,-6.2859 0.30102,0.3548 2.98,2.0584 3.35595,5.9539"/><path fill="#fff" d="m -575.00391,276.47656 c 0.10686,0.2745 0.2668,0.43501 0.3418,0.75391 0.20414,0.8683 0.23965,1.72996 0.0391,2.41406 a 0.50062864,0.50062864 0 0 1 -0.14062,0.22656 c 0.94697,-0.42094 1.34108,-1.55444 0.0566,-3.21093 -5.1e-4,-6.6e-4 -10e-4,-0.001 -0.002,-0.002 -0.0991,-0.0598 -0.19036,-0.12783 -0.29493,-0.18164 z" transform="translate(0 1020.362)"/><path fill="#576d7e" style="isolation:auto;mix-blend-mode:normal" d="m -584.87454,1323.8685 c -0.90151,0 -1.62546,0.6148 -1.62546,1.3789 l 0,0.2363 c 0,0.01 0.002,0.017 0.002,0.025 l -0.002,0 0,1.3535 1.62546,0 14.74908,0 1.62546,0 0,-1.3535 -0.002,0 c 1.8e-4,-0.01 0.002,-0.017 0.002,-0.025 l 0,-0.2363 c 0,-0.7641 -0.72395,-1.3789 -1.62546,-1.3789 l -14.74908,0 z" color="#000" overflow="visible"/><path fill="#fff" d="m -581.5,1320.8681 c -0.831,0 -1.5,0.669 -1.5,1.5 0,0.831 0,1.5 0,1.5 l 2,0 c 0,0 0,-0.669 0,-1.5 0,-0.831 0.669,-1.5 1.5,-1.5 z"/><path fill="#fff" d="m -583.375,303.50586 c -0.90151,0 -1.625,0.61481 -1.625,1.37891 l 0,0.23632 c 0,0.01 0.002,0.0174 0.002,0.0254 l -0.002,0 0,1.35352 1.625,0 0.375,0 0,-1.35352 0.002,0 c 0,-0.008 -0.002,-0.0154 -0.002,-0.0254 l 0,-0.23632 c 0,-0.7641 0.72349,-1.37891 1.625,-1.37891 l -2,0 z" color="#000" overflow="visible" transform="translate(0 1020.362)" style="isolation:auto;mix-blend-mode:normal"/><path fill="#fff" d="m -578.5,300.50586 c -0.831,0 -1.5,0.669 -1.5,1.5 l 0,1.5 1,0 0,-1.5 c 0,-0.831 0.669,-1.5 1.5,-1.5 l -1,0 z" transform="translate(0 1020.362)"/><path fill="#fff" d="m -580.375,303.50586 c -0.90151,0 -1.625,0.61481 -1.625,1.37891 l 0,0.23632 c 0,0.01 0.002,0.0174 0.002,0.0254 l -0.002,0 0,1.35352 1,0 0,-1.35352 0.002,0 c 0,-0.008 -0.002,-0.0154 -0.002,-0.0254 l 0,-0.23632 c 0,-0.7641 0.72349,-1.37891 1.625,-1.37891 l -1,0 z" color="#000" overflow="visible" transform="translate(0 1020.362)" style="isolation:auto;mix-blend-mode:normal"/><path fill="#fff" style="line-height:normal;text-indent:0;text-align:start;text-decoration-line:none;text-decoration-style:solid;text-decoration-color:#000;text-transform:none;block-progression:tb;isolation:auto;mix-blend-mode:normal" d="m -582.45703,1305.8613 c -0.11264,0 -0.22275,0.034 -0.3125,0.1016 -0.73199,0.5356 -1.54457,1.0167 -2.42578,1.4375 -0.18667,0.08 -0.24814,0.1447 -0.24814,0.1447 0,0 0.0165,0.03 0.0335,0.051 0.25015,0.3088 0.45207,0.5118 0.71797,0.6717 0.90566,-0.4374 1.74727,-0.938 2.51226,-1.4978 0.39344,-0.2782 0.20442,-0.8972 -0.27734,-0.9082 z" color="#000" font-family="sans-serif" font-weight="400" overflow="visible" white-space="normal"/><path fill="#78c8f0" d="m -582.88281,1320.8681 c -0.82901,0 -1.49681,0.6659 -1.5,1.4941 -1e-5,0 0,0 0,0.01 l 0,2.9941 13.83203,0 0,-2.9941 c 0,0 10e-6,0 0,-0.01 -0.003,-0.8282 -0.67099,-1.4941 -1.5,-1.4941 l -10.83203,0 z"/><path fill="#fff" fill-rule="evenodd" d="m -577.63867,1302.3711 a 0.50005,0.50005 0 1 0 0,1 l 1,0 a 0.50005,0.50005 0 1 0 0,-1 l -1,0 z" color="#000" font-family="sans-serif" font-weight="400" overflow="visible" white-space="normal" style="line-height:normal;text-indent:0;text-align:start;text-decoration-line:none;text-decoration-style:solid;text-decoration-color:#000;text-transform:none;block-progression:tb;isolation:auto;mix-blend-mode:normal"/><path fill="#fff" fill-rule="evenodd" d="M-574.55555 1307.1414l-.30178.5458c-.98474 1.2747-.4295 2.3103-4.03827 3.2191-3.60877.9088-5.08251 4.8184-4.35489 7.9862l1.66881-.01c-1.15173-4.2984 1.14247-5.8499 3.60016-6.9077 2.30066-.9902 3.42597-1.287 3.42597-4.8384zM-575.69531 1299.1278c-.85404.7069-1.90866 1.1333-3.05469 1.1797-.72865 1.5497-2.2515 2.7055-4.16602 3.0547a.50004997.50004997 0 0 1-.0508.012c-1.22523.092-2.20912.8847-2.47851 1.9277-.154.5962-.0554 1.1999.24219 1.7188-.0322-1.5741 1.37866-2.4999 3.74804-2.9707 1.22732-.2439 2.56663-1.2357 3.14453-2.6231.49084-1.1783 1.83904-1.6104 2.61524-2.2988z"/><path fill="#78c8f0" d="m -572.1522,1301.8672 c 0.6869,-2.6423 -0.98307,-5.3198 -3.82056,-6.0046 0.30102,0.3548 0.65744,1.319 0.84589,2.1207 0.18845,0.8017 0.0837,1.3352 -0.0767,1.8824"/><path fill="#4bbfeb" d="m -572.1522,1302.1485 c 0.6869,-2.6423 -0.8478,-5.7863 -3.82056,-6.2859 0.30102,0.3548 2.98,2.0584 3.35595,5.9539"/><path fill="#fff" d="m -575.00391,1296.8388 c 0.10686,0.2745 0.2668,0.435 0.3418,0.7539 0.20414,0.8683 0.23965,1.7299 0.0391,2.414 a 0.50062864,0.50062864 0 0 1 -0.14062,0.2266 c 0.94697,-0.4209 1.34108,-1.5544 0.0566,-3.2109 -5.1e-4,-7e-4 -10e-4,-10e-4 -0.002,0 -0.0991,-0.06 -0.19036,-0.1279 -0.29493,-0.1817 z"/><path fill="#576d7e" style="isolation:auto;mix-blend-mode:normal" d="m -584.87454,1323.8685 c -0.90151,0 -1.62546,0.6148 -1.62546,1.3789 l 0,0.2363 c 0,0.01 0.002,0.017 0.002,0.025 l -0.002,0 0,1.3535 1.62546,0 14.74908,0 1.62546,0 0,-1.3535 -0.002,0 c 1.8e-4,-0.01 0.002,-0.017 0.002,-0.025 l 0,-0.2363 c 0,-0.7641 -0.72395,-1.3789 -1.62546,-1.3789 l -14.74908,0 z" color="#000" overflow="visible"/><path fill="#fff" d="m -581.5,1320.8681 c -0.831,0 -1.5,0.669 -1.5,1.5 0,0.831 0,1.5 0,1.5 l 2,0 c 0,0 0,-0.669 0,-1.5 0,-0.831 0.669,-1.5 1.5,-1.5 z"/><path fill="#fff" d="m -583.375,1323.8681 c -0.90151,0 -1.625,0.6148 -1.625,1.3789 l 0,0.2363 c 0,0.01 0.002,0.017 0.002,0.025 l -0.002,0 0,1.3535 1.625,0 0.375,0 0,-1.3535 0.002,0 c 0,-0.01 -0.002,-0.015 -0.002,-0.025 l 0,-0.2363 c 0,-0.7641 0.72349,-1.3789 1.625,-1.3789 l -2,0 z" color="#000" overflow="visible" style="isolation:auto;mix-blend-mode:normal"/><path fill="#fff" d="m -578.5,1320.8681 c -0.831,0 -1.5,0.669 -1.5,1.5 l 0,1.5 1,0 0,-1.5 c 0,-0.831 0.669,-1.5 1.5,-1.5 l -1,0 z"/><path fill="#fff" d="m -580.375,1323.8681 c -0.90151,0 -1.625,0.6148 -1.625,1.3789 l 0,0.2363 c 0,0.01 0.002,0.017 0.002,0.025 l -0.002,0 0,1.3535 1,0 0,-1.3535 0.002,0 c 0,-0.01 -0.002,-0.015 -0.002,-0.025 l 0,-0.2363 c 0,-0.7641 0.72349,-1.3789 1.625,-1.3789 l -1,0 z" color="#000" overflow="visible" style="isolation:auto;mix-blend-mode:normal"/></g></g></svg>