<svg xmlns="http://www.w3.org/2000/svg" width="32" height="32" viewBox="0 0 32 32"><g transform="translate(416 -1416.362)"><g transform="matrix(.6 0 0 .6 -136 572.945)"><circle style="isolation:auto;mix-blend-mode:normal" cx="-440" cy="1432.362" r="10" fill="#f05542" color="#000" overflow="visible"/><path fill="#2b4255" style="isolation:auto;mix-blend-mode:normal" d="m -430.00043,1432.3622 a 10,10 0 0 1 -7.41181,9.6592 10,10 0 0 1 -11.24844,-4.6592 l 8.66025,-5 z" color="#000" overflow="visible"/><path fill="#25b39e" d="m -440.00043,1422.3622 a 10,10 0 0 1 9.45987,6.7579 10,10 0 0 1 -3.32599,11.1399 l -6.13388,-7.8978 z" color="#000" overflow="visible" style="isolation:auto;mix-blend-mode:normal"/><path fill="#f8b84e" style="isolation:auto;mix-blend-mode:normal" d="m -440.00043,1422.3622 a 10,10 0 0 1 9.65926,7.4118 l -9.65926,2.5882 z" color="#000" overflow="visible"/></g><g transform="translate(125 260)"><path fill="none" stroke="#f05542" stroke-dashoffset="1.5" stroke-linecap="round" stroke-linejoin="round" style="isolation:auto;mix-blend-mode:normal" d="m -524.99994,1157.8623 a 14.499923,14.499925 0 0 1 13.39618,8.951 14.499923,14.499925 0 0 1 -3.14319,15.8019 14.499923,14.499925 0 0 1 -15.80187,3.1432 14.499923,14.499925 0 0 1 -8.95104,-13.3962" color="#000" overflow="visible"/><path fill="none" stroke="#25b39e" stroke-dashoffset="1.5" stroke-linecap="round" stroke-linejoin="round" style="isolation:auto;mix-blend-mode:normal" d="m -514.17375,1166.1114 a 12.500025,12.500027 0 0 1 -2.5835,15.6481 12.500025,12.500027 0 0 1 -15.85137,0.5189 12.500025,12.500027 0 0 1 -3.6014,-15.4456 12.500025,12.500027 0 0 1 14.44618,-6.5454" color="#000" overflow="visible"/><path fill="none" stroke="#fcd062" stroke-dashoffset="1.5" stroke-linecap="round" stroke-linejoin="round" style="isolation:auto;mix-blend-mode:normal" d="m -524.99915,1161.8613 a 10.5,10.500002 0 0 1 10.34049,8.6767 10.5,10.500002 0 0 1 -6.74927,11.6901 10.5,10.500002 0 0 1 -12.68448,-4.6168" color="#000" overflow="visible"/><path fill="none" stroke="#34485c" stroke-dashoffset="1.5" stroke-linecap="round" stroke-linejoin="round" style="isolation:auto;mix-blend-mode:normal" d="m -524.99915,1180.8613 a 8.5,8.500001 0 0 1 -7.85297,-5.2472 8.5,8.500001 0 0 1 1.84257,-9.2632 8.5,8.500001 0 0 1 9.26321,-1.8425 8.5,8.500001 0 0 1 5.24719,7.8529" color="#000" overflow="visible"/></g></g></svg>