<svg xmlns="http://www.w3.org/2000/svg" width="32" height="32" viewBox="0 0 32 32"><g transform="translate(-3 -1020.354)"><path fill="#f05542" style="line-height:normal;text-indent:0;text-align:start;text-decoration-line:none;text-decoration-style:solid;text-decoration-color:#000;text-transform:none;block-progression:tb;isolation:auto;mix-blend-mode:normal" d="m 29.033203,0 c -1.39205,-0.00328594 -2.794235,0.17524687 -4.173828,0.54492188 L 25.894531,4.4082031 C 27.930443,3.8626989 30.029638,3.8739422 32,4.3828125 l 0,-4.09375 C 31.025595,0.10293003 30.03211,0.00235792 29.033203,0 Z" color="#000" font-family="sans-serif" font-weight="400" overflow="visible" transform="translate(0 1020.362)" white-space="normal"/><path fill="#f05542" style="isolation:auto;mix-blend-mode:normal" d="M 29.089844,6 A 10,10 0 0 0 26.412109,6.3398438 10,10 0 0 0 19.341797,18.587891 10,10 0 0 0 31.587891,25.660156 10,10 0 0 0 32,25.527344 L 32,6.4609375 A 10,10 0 0 0 29.089844,6 Z" color="#000" overflow="visible" transform="translate(0 1020.362)"/><path fill="#2b4255" style="isolation:auto;mix-blend-mode:normal" d="m 29,16 -9.658203,2.587891 A 10,10 0 0 0 29,26 10,10 0 0 0 32,25.537109 L 32,16.802734 29,16 Z" color="#000" overflow="visible" transform="translate(0 1020.362)"/><path fill="#25b39e" style="isolation:auto;mix-blend-mode:normal" d="m 240.21799,998.55481 a 10,10 0 0 1 9.45986,6.75799 10,10 0 0 1 -3.32598,11.1398 l -6.13388,-7.8978 z" color="#000" overflow="visible" transform="scale(-1 1) rotate(15)"/><path fill="#f8b84e" d="m 240.21799,998.55481 a 10,10 0 0 1 9.65926,7.41179 l -9.65926,2.5882 z" color="#000" overflow="visible" style="isolation:auto;mix-blend-mode:normal" transform="scale(-1 1) rotate(15)"/><path fill="#2b4255" style="line-height:normal;text-indent:0;text-align:start;text-decoration-line:none;text-decoration-style:solid;text-decoration-color:#000;text-transform:none;block-progression:tb;isolation:auto;mix-blend-mode:normal" d="m 24.382812,27.076172 -1.539062,3.691406 c 2.921717,1.217741 6.106514,1.50817 9.15625,0.925781 l 0,-4.080078 c -2.50959,0.648712 -5.183359,0.477325 -7.617188,-0.537109 z" color="#000" font-family="sans-serif" font-weight="400" overflow="visible" transform="translate(0 1020.362)" white-space="normal"/><path fill="#f8b84e" style="line-height:normal;text-indent:0;text-align:start;text-decoration-line:none;text-decoration-style:solid;text-decoration-color:#000;text-transform:none;block-progression:tb;isolation:auto;mix-blend-mode:normal" d="m 24.858566,1020.9074 1.035277,3.8637 c -5.255528,1.4082 -8.892835,6.1502 -8.892858,11.5911 l -3.999555,10e-5 c 1.8e-5,-7.2321 4.871549,-13.5831 11.857136,-15.4549 z" color="#000" font-family="sans-serif" font-weight="400" overflow="visible" white-space="normal"/><path fill="#25b39e" style="line-height:normal;text-indent:0;text-align:start;text-decoration-line:none;text-decoration-style:solid;text-decoration-color:#000;text-transform:none;block-progression:tb;isolation:auto;mix-blend-mode:normal" d="m 13.00143,1036.3623 3.999555,-10e-5 c -3.2e-5,4.865 2.923516,9.2363 7.420585,11.0922 l -1.524451,3.6983 c -5.983642,-2.4695 -9.895719,-8.3172 -9.895689,-14.7904 z" color="#000" font-family="sans-serif" font-weight="400" overflow="visible" white-space="normal"/><circle cx="25.5" cy="1039.862" r="1" fill="none" stroke="#cad1d8" stroke-dashoffset="1.1" stroke-linecap="round" stroke-linejoin="round" style="isolation:auto;mix-blend-mode:normal" color="#000" overflow="visible"/><path fill="none" stroke="#cad1d8" stroke-linejoin="round" d="M4.9949257 1022.8622l19.5004973 0 4.227822 5.0734M4.9949257 1028.8623l15.4995023 0 4.207715 3.3662M4.9949257 1043.8622l15.4995023 0 4.217615-3.3741M4.9949257 1049.8622l19.5004973 0 4.421185-5.3054"/><circle cx="25.5" cy="1032.862" r="1" fill="none" stroke="#cad1d8" stroke-dashoffset="1.1" stroke-linecap="round" stroke-linejoin="round" color="#000" overflow="visible" style="isolation:auto;mix-blend-mode:normal"/><circle cx="29.5" cy="1028.862" r="1" fill="none" stroke="#cad1d8" stroke-dashoffset="1.1" stroke-linecap="round" stroke-linejoin="round" style="isolation:auto;mix-blend-mode:normal" color="#000" overflow="visible"/><circle cx="29.5" cy="1043.862" r="1" fill="none" stroke="#cad1d8" stroke-dashoffset="1.1" stroke-linecap="round" stroke-linejoin="round" color="#000" overflow="visible" style="isolation:auto;mix-blend-mode:normal"/></g></svg>