<svg xmlns="http://www.w3.org/2000/svg" width="32" height="32" viewBox="0 0 32 32"><g transform="translate(0 -1020.362)"><path fill="#f8b84e" style="isolation:auto;mix-blend-mode:normal" d="m 16,2 0,3 c 6.075132,0 11,4.9249 11,11 l 3,0 C 30,8.268 23.731987,2 16,2 Z" color="#000" overflow="visible" transform="translate(0 1020.362)"/><path fill="none" stroke="#576d7e" stroke-dashoffset="1.1" stroke-linecap="square" stroke-linejoin="round" style="isolation:auto;mix-blend-mode:normal" d="m 16,1020.8622 c -8.5604136,0 -15.5,6.9396 -15.5,15.5 0,8.5604 6.9395864,15.5 15.5,15.5 8.560414,0 15.5,-6.9396 15.5,-15.5 0,-8.5604 -6.939586,-15.5 -15.5,-15.5 z" color="#000" overflow="visible"/><path fill="none" stroke="#576d7e" stroke-dashoffset="1.1" stroke-linecap="square" stroke-linejoin="round" d="m 16,1026.8622 c -5.246705,0 -9.5,4.2533 -9.5,9.5 0,5.2467 4.253295,9.5 9.5,9.5 5.246706,0 9.5,-4.2533 9.5,-9.5 0,-5.2467 -4.253294,-9.5 -9.5,-9.5 z" color="#000" overflow="visible" style="isolation:auto;mix-blend-mode:normal"/><circle cx="-718.614" cy="744.775" r=".835" fill="none" stroke="#576d7e" stroke-dashoffset=".8" stroke-linecap="round" stroke-linejoin="round" color="#000" overflow="visible" transform="rotate(-44.996)" style="isolation:auto;mix-blend-mode:normal"/><path fill="none" stroke="#576d7e" stroke-linecap="round" stroke-linejoin="round" d="m 17.50505,1038.8564 4.988996,-4.9884"/><circle cx="-718.732" cy="749.369" r=".835" fill="none" stroke="#576d7e" stroke-dashoffset=".8" stroke-linecap="round" stroke-linejoin="round" style="isolation:auto;mix-blend-mode:normal" color="#000" overflow="visible" transform="rotate(-44.996)"/></g></svg>