<svg xmlns="http://www.w3.org/2000/svg" width="32" height="32" viewBox="0 0 32 32"><g transform="translate(0 -1020.362)"><path fill="#25b39e" d="M 16,2 C 8.268013,2 2,8.268 2,16 2,23.732 8.268013,30 16,30 23.731987,30 30,23.732 30,16 30,8.268 23.731987,2 16,2 Z m 0,3 C 22.075132,5 27,9.9249 27,16 27,22.0751 22.075132,27 16,27 9.9248674,27 5,22.0751 5,16 5,9.9249 9.9248674,5 16,5 Z" color="#000" overflow="visible" transform="translate(0 1020.362)" style="isolation:auto;mix-blend-mode:normal"/><path fill="none" stroke="#576d7e" stroke-dashoffset="1.1" stroke-linecap="square" stroke-linejoin="round" d="m 16,1020.8622 c -8.5604136,0 -15.5,6.9396 -15.5,15.5 0,8.5604 6.9395864,15.5 15.5,15.5 8.560414,0 15.5,-6.9396 15.5,-15.5 0,-8.5604 -6.939586,-15.5 -15.5,-15.5 z" color="#000" overflow="visible" style="isolation:auto;mix-blend-mode:normal"/><path fill="none" stroke="#576d7e" stroke-dashoffset="1.1" stroke-linecap="square" stroke-linejoin="round" style="isolation:auto;mix-blend-mode:normal" d="m 16,1026.8622 c -5.246705,0 -9.5,4.2533 -9.5,9.5 0,5.2467 4.253295,9.5 9.5,9.5 5.246706,0 9.5,-4.2533 9.5,-9.5 0,-5.2467 -4.253294,-9.5 -9.5,-9.5 z" color="#000" overflow="visible"/><circle cx="-718.378" cy="745.011" r=".835" fill="none" stroke="#576d7e" stroke-dashoffset=".8" stroke-linecap="round" stroke-linejoin="round" style="isolation:auto;mix-blend-mode:normal" color="#000" overflow="visible" transform="rotate(-44.996)"/><path fill="none" stroke="#576d7e" stroke-linecap="round" stroke-linejoin="round" d="m 18.005451,1038.8564 4.988996,-4.9884"/><circle cx="-718.378" cy="749.723" r=".835" fill="none" stroke="#576d7e" stroke-dashoffset=".8" stroke-linecap="round" stroke-linejoin="round" color="#000" overflow="visible" transform="rotate(-44.996)" style="isolation:auto;mix-blend-mode:normal"/></g></svg>