<svg xmlns="http://www.w3.org/2000/svg" width="32" height="32" viewBox="0 0 32 32"><g transform="translate(0 -1021.371)"><rect width="5" height="18" x="24" y="1034.362" fill="#25b39e" color="#000" overflow="visible" style="isolation:auto;mix-blend-mode:normal"/><rect style="isolation:auto;mix-blend-mode:normal" width="5" height="22" x="17" y="1030.362" fill="#f8b84e" color="#000" overflow="visible"/><rect width="5" height="15" x="10" y="1037.362" fill="#4bbfeb" color="#000" overflow="visible" style="isolation:auto;mix-blend-mode:normal"/><rect style="isolation:auto;mix-blend-mode:normal" width="5" height="10" x="3" y="1042.362" fill="#f05542" color="#000" overflow="visible"/><path fill="#576d7e" style="isolation:auto;mix-blend-mode:normal" d="M10.000017 1030.3622l4.999966 0c.554009 0 1.000017.446 1.000017 1l0 2c0 .554-.446008 1-1.000017 1l-1.499983 0-1 2-1-2-1.499983 0c-.5540092 0-1.000017-.446-1.000017-1l0-2c0-.554.4460078-1 1.000017-1zM17.000017 1023.3622l4.999966 0c.554009 0 1.000017.446 1.000017 1l0 2c0 .554-.446008 1-1.000017 1l-1.499983 0-1 2-1-2-1.499983 0c-.554009 0-1.000017-.446-1.000017-1l0-2c0-.554.446008-1 1.000017-1zM24.000017 1027.3622l4.999966 0c.554009 0 1.000017.446 1.000017 1l0 2c0 .554-.446008 1-1.000017 1l-1.499983 0-1 2-1-2-1.499983 0c-.554009 0-1.000017-.446-1.000017-1l0-2c0-.554.446008-1 1.000017-1zM3.000017 1035.3622l4.999966 0c.554009 0 1.000017.446 1.000017 1l0 2c0 .554-.446008 1-1.000017 1l-1.499983 0-1 2-1-2-1.499983 0c-.5540092 0-1.000017-.446-1.000017-1l0-2c0-.554.4460078-1 1.000017-1z" color="#000" overflow="visible"/></g></svg>